<svg xmlns="http://www.w3.org/2000/svg" fill="none" viewBox="0 0 400 400" id="Add-Product-1--Streamline-Bruxelles.svg" height="400" width="400"><desc>Add Product 1 Streamline Illustration: https://streamlinehq.com</desc><g id="add-product-1--shopping-e-commerce-add-product-cart"><g id="handle"><path id="vector" fill="#ff9fa3" d="M47.402 115.8518c-1.806 0.146 -3.158 -0.082 -4.136 -0.434 -2.436 -0.876 -2.59 -3.176 -1.944 -7.936 0.138 -1.008 1.934 -2.014 4.844 -2.196 8.574 -0.536 80.662 -5.41 87.678 -5.694 3.294 -0.134 4.702 1.118 5.166 2.75 1.282 4.49 1.914 6.77 -3.15 7.236 -6.874 0.634 -81.838 5.736 -88.458 6.274Z" stroke-width="1"></path><path id="vector_2" fill="#c2cad7" d="M52.278 117.3718c10.392 34.558 11.386 30.784 21.482 62.912l7.582 -1.734c-10.372 -30.234 -5.65 -16.314 -20.874 -61.626l-8.188 0.446 -0.002 0.002Z" stroke-width="1"></path><path id="vector_3" fill="#c2cad7" d="m125.29 112.38 7.102 -0.564c12.576 35.294 8.216 22.648 19.21 55.524l-9.44 1.902c-12.67 -44.024 -8.928 -31.474 -16.872 -56.862Z" stroke-width="1"></path><path id="vector_4" fill="#000000" d="M128.684 112.58c2.626 -0.096 3.338 -0.696 3.894 1.956 1.284 6.166 2.22 6.198 7.316 19.88 2.314 6.214 -0.036 0.208 10.606 33.044 0.648 -0.064 1.294 -0.132 1.934 -0.242 0.202 -0.036 -9.054 -27.6 -10.506 -33.282 -1.528 -5.972 -2.356 -3.834 -7.926 -21.232 -0.398 -1.244 3.334 -0.558 6.468 -2.75 2.77 -1.938 1.708 -4.678 0.458 -8.188 -0.88 -2.466 -2.438 -4.424 -6.94 -4.156 -7.144 0.426 -79.856 4.95 -88.392 5.608 -3.69 0.284 -5.866 1.518 -6.14 3.076 -2.308 13.112 3.85 11.966 10.384 11.546 2.34 -0.148 0.47 -0.176 6.222 15.86 1.106 3.088 12.352 32.682 13.384 35.398 4.544 11.92 2.144 12.894 5.672 11.362 -10.848 -33.648 -20.448 -52.568 -21.684 -62.772 1.702 -0.166 3.436 0.052 5.12 -0.456 0.648 -0.194 0.918 -0.108 1.246 0.79 0.382 1.052 17.354 52.292 20.264 60.848 0.6 -0.136 1.056 -0.258 1.852 -0.492 -3.668 -14.46 -19.894 -59.744 -20.466 -61.312 43.566 -2.906 57.032 -3.764 59.884 -4.036 1.31 -0.124 3.402 -0.184 3.274 1.516 0 0 8.99 26.42 16.418 54.852 0.7 -0.056 1.388 -0.194 2.068 -0.366 -3.512 -11.128 -12.262 -42.532 -12.272 -42.574 -2.522 -12.026 -7.448 -13.674 -2.14 -13.88l0.002 0.002Zm-81.282 3.272c-1.806 0.146 -3.158 -0.082 -4.136 -0.434 -2.436 -0.876 -2.59 -3.176 -1.944 -7.936 0.138 -1.008 1.934 -2.014 4.844 -2.196 8.574 -0.536 80.662 -5.41 87.678 -5.694 3.294 -0.134 4.702 1.118 5.166 2.75 1.282 4.49 1.914 6.77 -3.15 7.236 -6.874 0.634 -81.838 5.736 -88.458 6.274Z" stroke-width="1"></path></g><g id="cart - back"><path id="vector_5" fill="#e9ebea" d="m102.296 183.3202 60.282 -10.45 48.442 11.628c63.744 13.542 56.766 11.692 63.608 14.362 -54.498 15.2678 -37.638 11.2298 -75.4 18.4738 -75.88 -19.9658 -52.794 -13.496 -103.502 -28.7298 -12.046 -3.618 -15.68 -1.588 6.57 -5.284Z" stroke-width="1"></path><path id="vector_6" fill="#bac4c6" d="m100.368 183.936 1.926 5.76c-16.832 -4.906 -17.266 -3.874 -1.926 -5.76Z" stroke-width="1"></path><path id="vector_7" fill="#bac4c6" d="m107.998 183.1144 3.664 10.664 8.458 2.44 11.31 -3.302 -2.722 -13.602 -20.71 3.8Z" stroke-width="1"></path><path id="vector_8" fill="#bac4c6" d="m142.142 197.9324 1.054 4.0136 17.458 4.432 -0.952 -12.5996 -17.56 4.154Z" stroke-width="1"></path><path id="vector_9" fill="#bac4c6" d="M169.242 196.9942v12.5978l15.186 3.998 0.532 -12.894 -15.718 -3.7018Z" stroke-width="1"></path><path id="vector_10" fill="#bac4c6" d="m190.876 214.434 0.88 -11.926c4.03 0.632 0.04 -0.116 23.022 4.508l0.47 4.508 -0.808 3.568c-17.452 2.69 -12.202 2.998 -23.564 -0.658Z" stroke-width="1"></path><path id="vector_11" fill="#bac4c6" d="M225.518 187.6002c-2.3 9.508 -1.918 6.432 -1.918 13.6818l25.424 5.1 26.236 -7.5338 -49.74 -11.25 -0.002 0.002Z" stroke-width="1"></path><path id="vector_12" fill="#ff9fa3" d="M291.206 194.9284c-29.828 -9.042 -107.23 -25.286 -129.898 -29.03 -71.476 11.576 -54.838 9.004 -79.388 12.482l-0.528 6.538c13 2.164 37.062 -5.57 82.886 -12.718 57.616 16.14 93.26 20.988 114.022 26.8l12.908 -4.07 -0.002 -0.002Z" stroke-width="1"></path><path id="vector_13" fill="#bac4c6" d="M215.754 186.684c-0.338 11.476 0.588 13.082 -1.356 12.528 -24.458 -6.956 -22.948 0.284 -20.17 -16.538 0.204 -1.238 0.59 -0.502 5.816 0.526 15.794 3.108 15.73 2.784 15.71 3.484Z" stroke-width="1"></path><path id="vector_14" fill="#bac4c6" d="M184.936 184.9624c0.01 2.144 -0.094 4.28 -0.346 6.416 -0.108 0.922 -0.386 1.198 -1.384 0.958 -13.672 -3.314 -13.648 -2.426 -13.84 -4.416 -0.38 -3.926 -0.198 -7.846 -0.278 -11.772 -0.032 -1.604 0.136 -1.398 14.902 3.056 1.226 0.37 0.922 0.956 0.946 5.758Z" stroke-width="1"></path><path id="vector_15" fill="#bac4c6" d="M141.718 190.1242c-1.058 0.518 -0.498 -1.056 -2.702 -10.164 -0.52 -2.148 -0.276 -1.586 17.726 -4.706 1.642 -0.284 1.044 0.084 1.894 9.946 0.174 2.006 -1.242 1.198 -16.916 4.922l-0.002 0.002Z" stroke-width="1"></path><path id="vector_16" fill="#000000" d="M183.778 169.1062c-16.688 -4.294 -18.832 -5.07 -28.08 -3.432 -2.248 0.398 -51.234 7.408 -74.256 11.516 0.258 0.868 0.266 1.73 0.132 2.496 21.01 -3.794 69.844 -11.182 73.8 -11.706 11.87 -1.572 15.07 -0.164 22.086 1.892 16.518 4.842 95.96 20.872 107.48 23.586 2.574 0.606 3.204 -1.41 1.44 -1.956 -3.824 -1.182 -97.684 -21.13 -102.602 -22.396Z" stroke-width="1"></path><path id="vector_17" fill="#000000" d="M230.196 187.0724c-60.238 -11.344 -60.194 -16.338 -68.382 -14.846 -80.614 14.694 -82.33 11.84 -71.776 14.27 6.696 -0.922 9.5 -2.308 10.332 0.318 1.508 4.754 1.384 3.418 2.744 3.812 -2.896 -7.968 -0.786 -6.122 3.354 -7.114 1.076 -0.258 1.854 2.626 3.394 8.596 3.092 1.246 2.562 2.606 -0.438 -7.936 -0.518 -1.27 -0.796 -0.68 17.726 -4.098 1.328 -0.246 0.924 0.77 4.02 11.574 0.098 0.344 -0.144 0.804 -0.766 0.926 -1.344 0.266 -11.104 2.074 -14.14 2.458 2.5 0.716 4.874 1.248 4.874 1.248s7.096 -1.202 11.21 -1.836c1.926 -0.296 1.436 0.036 -2.276 -13.41 -0.568 -2.058 -0.052 -1.286 5.876 -2.22 1.42 -0.224 0.942 -0.238 3.508 12.746 0.344 1.744 0.16 1.06 15.846 -2.462 1.154 -0.26 2.582 -1.36 3.338 -0.708 0.648 0.558 0.294 2.252 0.45 3.434 0.292 2.208 -0.344 -0.098 -17.186 5.044 -1.01 0.308 -0.482 2.39 -0.128 4.4156 0.784 0.23 1.158 0.41 1.982 0.656 -0.394 -1.646 -0.56 -3.5936 0 -3.7516 4.784 -1.356 9.622 -2.426 14.528 -3.218 0.508 -0.082 0.796 0.268 0.956 1.138 0.268 1.448 0.548 8.9696 0.592 11.2136 3.174 0.672 1.09 0.324 0.346 -28.9056 -0.032 -1.246 -1.146 -2.8 0.032 -3.68 1.396 -1.042 4.79 -0.382 5.366 -0.446 2.876 -0.324 0.912 2.84 1.742 12.05 1.874 20.8216 -0.518 22.7036 2.924 23.7616 -0.02 -1.452 -0.04 -7.152 -0.04 -11.9616 4.424 0.994 8.844 2.0036 13.272 2.9636 1.464 0.318 -0.904 12.316 -0.128 12.564 0.536 0.172 1.066 0.342 1.6 0.51 -0.024 -6.118 2.032 -14.2636 0.354 -14.4596 -3.76 -0.438 -7.276 -1.918 -10.972 -2.63 -3.0826 -0.5948 -4.63 -2.47 -4.642 -5.626 -0.004 -1.062 6.938 2.062 13.41 2.2 1.906 0.04 3.254 1.5 3.286 -0.362 0.07 -4.13 0.522 -8.25 0.226 -12.384 -0.14 -1.958 1.854 -0.07 4.574 0.226 3.17 0.344 -0.19 2.036 -0.136 13.176 0.004 0.844 0.2 1.172 1.042 1.364 2.086 0.476 4.122 1.222 6.222 1.612 17.956 3.3496 18.7 4.6056 18.928 2.574 0.186 -1.656 1.002 -12.05 -0.04 -13.346 0.748 -0.024 6.79 0.734 7.168 1.48 0.374 0.742 -0.38 1.64 -0.632 2.462 -1.084 3.526 -1.014 7.182 -1.304 10.8036 -0.078 0.974 -0.202 0.908 19.9 4.356 0.84 -0.132 1.65 -0.502 2.458 -0.8 -6.034 -1.086 -12.96 -3.342 -19.934 -3.894 -0.608 -0.048 -0.86 -0.256 -0.796 -0.86 0.25 -2.3516 0.922 -12.2016 3.076 -11.6116 2.35 0.644 24.752 4.272 38.128 8.176 4.318 1.26 8.122 2.37 10.31 2.508 1.238 0.078 1.958 -0.152 1.958 -0.844 -8.314 -2.892 -40.574 -9.956 -47.336 -11.23v0.004Zm-88.476 3.05c-1.058 0.518 -0.498 -1.056 -2.702 -10.164 -0.52 -2.148 -0.276 -1.586 17.726 -4.706 1.642 -0.284 1.044 0.084 1.894 9.946 0.174 2.006 -1.242 1.198 -16.916 4.922l-0.002 0.002Zm43.216 -5.162c0.01 2.144 -0.094 4.28 -0.346 6.416 -0.108 0.922 -0.386 1.198 -1.384 0.958 -13.672 -3.314 -13.648 -2.426 -13.84 -4.416 -0.38 -3.926 -0.198 -7.846 -0.278 -11.772 -0.032 -1.604 0.136 -1.398 14.902 3.056 1.226 0.37 0.922 0.956 0.946 5.758Zm30.818 1.724c-0.338 11.476 0.588 13.082 -1.356 12.528 -24.458 -6.956 -22.948 0.284 -20.17 -16.538 0.204 -1.238 0.59 -0.502 5.816 0.526 15.794 3.108 15.73 2.784 15.71 3.484Z" stroke-width="1"></path><path id="vector_18" fill="#000000" d="M193.74 201.908c-2.94 -0.632 -2.418 0.316 -2.612 2.01 -0.376 3.314 -1.302 9.376 -1.358 10.748 -0.016 0.39 -0.17 0.388 1.492 0.648 0.258 0.04 1.138 -7.042 1.142 -12.316 3.11 0.95 18.108 3.668 20.922 4.01 1.62 0.196 1.174 2.84 0.474 7.514 0.672 -0.31 1.014 -0.45 1.962 -0.684 0.652 -4.076 1.134 -7.718 -2.704 -8.248 -2.744 -0.38 -18.458 -3.496 -19.318 -3.682Z" stroke-width="1"></path></g><g id="box 3"><path id="vector_19" fill="#f8eea6" d="M193.094 232.464c-55.652 12.552 -45.822 10.51 -55.774 12.174 0 -53.3764 -1.13 -61.0744 -0.41 -68.0124 -0.148 -0.856 35.64 -7.168 55.046 -12.926 5.064 -1.502 4.594 -7.598 1.138 68.7644Z" stroke-width="1"></path><path id="vector_20" fill="#eed289" d="M135.064 244.122c-26.356 -13.654 -26.074 -12.922 -26.05 -14.934 0.754 -64.622 0.118 -62.038 4.59 -60.62 6.312 2 12.142 5.29 18.538 7.002 3.482 0.932 2.938 -0.088 2.922 68.552Z" stroke-width="1"></path><path id="vector_21" fill="#f8eea6" d="M192.244 161.356c-15.146 4.07 -31.854 8.018 -45.872 10.422 -14.182 2.432 -4.882 5.398 -32.128 -5.486 3.914 -1.42 7.774 -2.356 11.716 -3.012 56.766 -9.468 35.688 -13.51 66.282 -1.922l0.002 -0.002Z" stroke-width="1"></path><path id="vector_22" fill="#000000" d="M193.256 158.9618c-14.69 -4.812 -18.914 -8.828 -25.424 -6.58 -0.422 0.146 -42.316 8.468 -56.03 12.134 -5.546 1.484 -4.39 11.028 -5.064 66.2582 -0.008 0.732 0.398 1.42 1.054 1.758 7.742 3.998 27.27 14.768 27.27 14.768s32.488 -6.766 60.202 -13.016c3.414 -75.4742 4.536 -73.1822 -2.006 -75.3242l-0.002 0.002ZM135.064 244.122c-26.356 -13.654 -26.074 -12.922 -26.05 -14.934 0.754 -64.6222 0.118 -62.0382 4.59 -60.6202 6.312 2 12.142 5.29 18.538 7.002 3.482 0.932 2.938 -0.088 2.922 68.5522Zm-20.82 -77.8322c3.914 -1.42 7.774 -2.356 11.716 -3.012 56.766 -9.468 35.688 -13.51 66.282 -1.922 -15.146 4.07 -31.854 8.018 -45.872 10.422 -14.182 2.432 -4.882 5.398 -32.128 -5.486l0.002 -0.002Zm78.85 66.1742c-55.652 12.552 -45.822 10.51 -55.774 12.174 0 -53.3762 -1.13 -61.0742 -0.41 -68.0122 -0.148 -0.856 35.64 -7.168 55.046 -12.926 5.064 -1.502 4.594 -7.598 1.138 68.7642Z" stroke-width="1"></path></g><g id="box 6"><path id="vector_23" fill="#fcc1d3" d="M193 186.618c0.566 -1.032 17.722 -28.544 21.784 -35.496 4.512 11.342 18.412 10.498 16.824 12.706 -0.168 0.23 -21.83 34.42 -27.784 43.964 -6.884 -4.23 -14.798 -13.928 -10.824 -21.174Z" stroke-width="1"></path><path id="vector_24" fill="#ee9fbc" d="M243.476 163.828c-3.756 6.896 -25.532 42.626 -26.046 43.386 -2.798 4.136 -7.722 3.69 -12.186 1.392 5.268 -7.41 26.932 -42.032 28.058 -44.022 0.664 -2.112 2.276 -0.768 3.45 -1.014 3.512 -0.23 5.176 -0.47 5.92 -0.588 0.76 -0.122 1.236 0.052 0.804 0.846Z" stroke-width="1"></path><path id="vector_25" fill="#fcc1d3" d="M241.264 161.0384c-7.054 1.918 -21.014 -2.872 -24.168 -9.81 -3.984 -8.764 17.14 -9.18 26.61 0.784 3.968 4.176 3.068 7.528 -2.442 9.026Z" stroke-width="1"></path><path id="vector_26" fill="#000000" d="M215.41 146.1682s-21.294 35.062 -24.98 41.84c-5.72 10.518 20.586 33.4678 28.334 20.7318 4.314 -7.092 24.024 -39.3738 28.204 -48.1578 7.69 -12.77 -25.078 -24.482 -31.556 -14.416l-0.002 0.002ZM193 186.6182c0.566 -1.032 17.722 -28.544 21.784 -35.496 4.512 11.342 18.412 10.498 16.824 12.706 -0.168 0.23 -21.83 34.42 -27.784 43.9638 -6.884 -4.23 -14.798 -13.9278 -10.824 -21.1738Zm50.474 -22.79c-3.756 6.896 -25.532 42.6258 -26.046 43.3858 -2.798 4.136 -7.722 3.69 -12.186 1.392 5.268 -7.41 26.932 -42.0318 28.058 -44.0218 0.664 -2.112 2.276 -0.768 3.45 -1.014 3.512 -0.23 5.176 -0.47 5.92 -0.588 0.76 -0.122 1.236 0.052 0.804 0.846Zm-2.212 -2.79c-7.054 1.918 -21.014 -2.872 -24.168 -9.81 -3.986 -8.764 17.142 -9.182 26.61 0.784 3.97 4.174 3.07 7.53 -2.442 9.026Z" stroke-width="1"></path></g><g id="box 5"><path id="vector_27" fill="#8bbfd4" d="M211.268 258.976c-22.886 -11.852 -22.642 -11.222 -22.62 -12.966 0.698 -56.128 0.096 -53.882 3.986 -52.648 5.474 1.738 10.542 4.588 16.096 6.078 3.024 0.812 2.554 -0.074 2.538 59.536Z" stroke-width="1"></path><path id="vector_28" fill="#bde2fc" d="M260.932 187.0882c-13.152 3.536 -27.662 6.97 -39.846 9.058 -12.314 2.11 -4.236 4.6858 -27.9 -4.766 3.398 -1.234 6.754 -2.05 10.176 -2.622 49.302 -8.232 30.992 -11.728 57.57 -1.67Z" stroke-width="1"></path><path id="vector_29" fill="#bde2fc" d="M261.672 248.854c-48.332 10.912 -39.802 9.13 -48.442 10.574 0 -46.358 -0.982 -53.046 -0.358 -59.068 -0.128 -0.7442 30.96 -6.2202 47.81 -11.2302 4.4 -1.308 3.986 -6.598 0.99 59.7242Z" stroke-width="1"></path><path id="vector_30" fill="#000000" d="M261.812 185.014c-12.758 -4.184 -16.438 -7.702 -22.08 -5.72 -0.362 0.128 -36.754 7.354 -48.662 10.538 -4.82 1.288 -3.774 9.584 -4.4 57.55 -0.008 0.636 0.342 1.234 0.908 1.528 11.852 6.134 22.564 12.28 23.69 12.83 6.336 -1.06 29.986 -6.276 52.286 -11.306 2.964 -65.546 3.938 -63.56 -1.742 -65.422v0.002Zm-50.544 73.962c-22.886 -11.852 -22.642 -11.222 -22.62 -12.966 0.698 -56.128 0.096 -53.882 3.986 -52.648 5.474 1.738 10.542 4.588 16.096 6.078 3.024 0.812 2.554 -0.074 2.538 59.536ZM193.186 191.38c3.398 -1.234 6.754 -2.05 10.176 -2.622 49.302 -8.232 30.994 -11.728 57.572 -1.67 -13.152 3.536 -27.662 6.97 -39.846 9.058 -12.314 2.11 -4.238 4.686 -27.902 -4.766Zm68.486 57.474c-48.332 10.912 -39.802 9.13 -48.442 10.574 0 -46.358 -0.982 -53.046 -0.358 -59.068 -0.128 -0.744 30.96 -6.22 47.81 -11.23 4.4 -1.308 3.986 -6.598 0.99 59.724Z" stroke-width="1"></path></g><g id="box 1"><path id="vector_31" fill="#f9d3bc" d="m142.272 25.878 6.278 11.062s-2.23 -0.58 -9.454 -2.58c-0.648 -0.18 -0.712 -0.59 -6.424 -11.732 2.088 0.472 9.6 3.25 9.6 3.25Z" stroke-width="1"></path><path id="vector_32" fill="#ffc0d3" d="M136.052 33.4402c-2.064 -0.364 -4.848 -1.326 -4.848 -1.326s-2.138 -6.098 -5.638 -11.918c2.556 0.796 4.942 1.782 4.942 1.782s1.894 4.106 5.544 11.464v-0.002Z" stroke-width="1"></path><path id="vector_33" fill="#cfb093" d="M113.182 29.6742c-4.042 3.616 -4.75 6.05 -13.406 19.6 -7.46 -12.568 -9.07 -11.71 -7.094 -14.736 4.212 -6.456 9.046 -15.2601 11.752 -20.1261 7.972 14.2941 9.922 14.2141 8.748 15.2641v-0.002Z" stroke-width="1"></path><path id="vector_34" fill="#f9d3bc" d="M129.222 31.566c-4.304 -0.986 -8.704 -1.988 -13.096 -3.012 -1.258 -0.294 -9.17 -13.56194 -10.124 -15.34794 0.048 0.016 17.452 4.952 17.746 6.19 1.046 4.41194 4.404 7.75794 5.474 12.16994Z" stroke-width="1"></path><path id="vector_35" fill="#ffc0d3" d="M151.406 42.8562c-37.534 -9.906 -35.87 -8.952 -38.212 -5.494 -3.38 4.992 -8.422 14.086 -10.056 17.202 -1.296 -0.596 -2.846 -3.478 -0.14 -6.958 15.268 -19.632 1.164 -21.128 46.352 -8.234 1.58 0.452 1.206 2.288 2.056 3.484Z" stroke-width="1"></path><path id="vector_36" fill="#ffc0d3" d="M136.748 77.4742c-0.832 1.61 -2.832 2.056 -4.192 0.956 -0.984 -0.798 5.038 -9.446 6.014 -10.986 1.834 -2.888 3.108 -6.044 4.678 -9.058 0.85 -1.634 -6.298 -15.94 -7.128 -17.584 6.122 1.508 5.16 0.95 5.72 2.466 8.75 23.734 7.452 9.952 -5.092 34.206Z" stroke-width="1"></path><path id="vector_37" fill="#f9d3bc" d="M156.942 75.7042c-1.614 2.01 -3.462 3.88 -4.658 6.218 -1.21 2.368 -0.584 0.214 -12.97 -1.742 -2.976 -0.47 -0.872 -0.898 8.844 -17.91 0.27 -0.474 0.496 -0.93 1.296 -0.588 3.668 1.576 7.752 1.786 11.406 3.462 2.354 1.08 3.512 1.308 -3.918 10.56Z" stroke-width="1"></path><path id="vector_38" fill="#f9d3bc" d="M163 63.6944c-4.936 -2.674 -13.546 -3.428 -13.724 -4.78 -0.448 -3.43 -1.17 -4.08 -5.716 -16.264 10.642 3.088 9.31 2.282 10.336 3.906 1.988 3.144 8.95 16.756 9.104 17.138Z" stroke-width="1"></path><path id="vector_39" fill="#f9d3bc" d="M140.926 56.4804c-14.27 -4.536 -12.528 -2.084 -20.332 -19.266 13.534 3.142 13.14 2.802 13.61 3.76 2.446 4.986 4.806 9.998 6.72 15.504l0.002 0.002Z" stroke-width="1"></path><path id="vector_40" fill="#f9d3bc" d="M140.086 60.6762c-4.046 8.118 -5.992 8.984 -9.34 16.008 -0.42 0.882 -0.936 1.532 -2.026 1.304 -2.014 -0.42 -6.826 -2.218 -13.998 -4.652 13.928 -13.566 12.26 -19.444 16.686 -17.616 7.484 3.092 10.174 1.952 8.678 4.956Z" stroke-width="1"></path><path id="vector_41" fill="#cfb093" d="M126.922 54.7002c-4.058 5.656 -7.738 11.616 -13.088 16.322 -3.072 -4.436 -6.022 -8.776 -9.066 -13.048 -1.556 -2.184 -1.314 -1.206 9.902 -19.14 4.522 -7.232 3.83 4.608 11.982 14.052 0.504 0.582 0.804 1.07 0.27 1.814Z" stroke-width="1"></path><path id="vector_42" fill="#000000" d="M164.218 61.1522c-2.588 -4.078 -4.424 -8.566 -6.81 -12.746 -4.06 -7.112 -8.378 -14.08 -12.182 -21.34 -0.84 -1.602 0.298 -2.414 -6.766 -4.528 -7.574 -2.268 -29.926 -10.41006 -33.37 -12.05006 -0.732 -0.348 -1.592 0.204 -2.04 1.158 -0.84 1.794 -11.61 20.45406 -12.396 21.72206 -1.406 2.27 -1.532 3.01 -0.272 5.036 0.898 1.442 19.482 31.94 21.552 34.854 1.372 2.368 2.838 2.22 7.802 3.78 7.818 2.458 15.638 4.926 23.766 6.118 2.666 0.39 4.988 1.734 7.57 2.312 2.672 0.6 2.32 -1.52 4.594 -4.19 4.89 -5.744 12.388 -14.084 8.552 -20.126Zm-21.946 -35.272 6.278 11.062s-2.23 -0.58 -9.454 -2.58c-0.648 -0.18 -0.712 -0.59 -6.424 -11.732 2.088 0.472 9.6 3.25 9.6 3.25Zm-6.22 7.562c-2.064 -0.364 -4.848 -1.326 -4.848 -1.326s-2.138 -6.098 -5.638 -11.918c2.556 0.796 4.942 1.782 4.942 1.782s1.894 4.104 5.544 11.462Zm-12.304 -14.04406c1.046 4.41206 4.404 7.75806 5.474 12.17006 -4.304 -0.986 -8.704 -1.988 -13.096 -3.012 -1.258 -0.294 -9.17 -13.56206 -10.124 -15.34806 0.048 0.016 15.336 5.3 17.746 6.19ZM92.682 34.5382c4.212 -6.456 9.046 -15.26006 11.752 -20.12606 7.972 14.29406 9.922 14.21406 8.748 15.26406 -4.042 3.616 -4.75 6.05 -13.406 19.6 -7.46 -12.568 -9.07 -11.71 -7.094 -14.736v-0.002Zm10.316 13.07c15.268 -19.632 1.164 -21.128 46.352 -8.234 1.58 0.452 1.206 2.288 2.056 3.484 -37.534 -9.906 -35.87 -8.952 -38.212 -5.494 -3.38 4.992 -8.422 14.086 -10.056 17.202 -1.296 -0.596 -2.846 -3.478 -0.14 -6.958Zm31.206 -6.63c2.446 4.986 4.806 9.998 6.72 15.504 -14.27 -4.536 -12.528 -2.084 -20.332 -19.266 13.534 3.142 13.14 2.802 13.61 3.76l0.002 0.002Zm-29.438 17c-1.556 -2.184 -1.314 -1.206 9.902 -19.14 4.522 -7.232 3.83 4.608 11.982 14.052 0.504 0.582 0.804 1.07 0.27 1.814 -4.058 5.656 -7.738 11.616 -13.088 16.322 -3.072 -4.436 -6.022 -8.776 -9.066 -13.048Zm10.692 14.972c13.928 -13.566 11.522 -19.052 15.946 -17.224 7.484 3.092 10.176 1.952 8.68 4.956 -4.046 8.118 -5.992 8.984 -9.34 16.008 -0.434 0.908 -0.982 1.394 -2.026 1 -1.842 -0.692 -6.13 -2.086 -13.26 -4.738v-0.002Zm17.094 5.484c-0.984 -0.798 5.038 -9.446 6.014 -10.986 1.834 -2.888 3.108 -6.044 4.678 -9.058 0.85 -1.634 -6.298 -15.94 -7.128 -17.584 6.122 1.508 5.16 0.95 5.72 2.466 8.75 23.734 7.452 9.954 -5.092 34.208 -0.832 1.61 -2.832 2.054 -4.192 0.954Zm24.388 -2.726c-1.614 2.01 -3.462 3.88 -4.658 6.218 -1.21 2.368 -0.584 0.214 -12.97 -1.742 -2.976 -0.47 -0.872 -0.898 8.844 -17.91 0.27 -0.474 0.496 -0.93 1.296 -0.588 3.668 1.576 7.752 1.786 11.406 3.462 2.354 1.08 3.512 1.308 -3.918 10.56Zm-7.666 -16.79c-0.448 -3.43 -1.17 -4.08 -5.716 -16.264 10.642 3.088 9.31 2.282 10.336 3.906 1.988 3.144 8.948 16.756 9.102 17.138 -4.936 -2.674 -13.544 -3.428 -13.722 -4.78Z" stroke-width="1"></path></g><g id="box 2"><path id="vector_43" fill="#fff6d9" d="M226.146 102.2064c-6.11 1.206 -11.324 7.032 -13.218 4.056 -2.736 -4.3 -4.666 -2.112 -23.75 -16.61 8.844 -3.512 7.862 -3.498 9.118 -2.682 3.916 2.546 26.246 13.164 27.85 15.236Z" stroke-width="1"></path><path id="vector_44" fill="#fff6d9" d="M226.458 117.2622c-0.752 6.258 -0.254 6.722 -1.5 7.07 -1.512 0.424 -9.446 5.314 -13.406 6.918 2.356 -16.024 2.884 -16.282 2.944 -20.746 0.008 -0.632 0.14 -1.14 0.772 -1.352 13.038 -4.374 13.564 -11.622 11.19 8.11Z" stroke-width="1"></path><path id="vector_45" fill="#fff6d9" d="M212.796 111.9564c-2.712 16.372 -2.592 16.482 -3.442 20.43 -1.644 1.57 -5.548 2.608 -11.446 5.838 -0.706 0.386 -1.54 -0.246 -1.356 -1.03 3.466 -14.818 0.732 -20.272 3.624 -21.512 12.182 -5.222 13.038 -6.246 12.622 -3.724l-0.002 -0.002Z" stroke-width="1"></path><path id="vector_46" fill="#f0cfac" d="M190.988 114.088c-7.804 -5.846 -16.858 -9.244 -25.754 -13.238 0.45 24.932 -1.432 24.09 0.764 24.932 9.948 3.814 16.666 7.938 27.07 11.582 1.846 0.646 2.01 1.198 4.09 -19.668 0.254 -2.546 -2.398 -0.782 -6.17 -3.608Z" stroke-width="1"></path><path id="vector_47" fill="#fff6d9" d="M212.248 108.2624c-15.236 6.79 -14.208 8.014 -21.912 2.776 -8.678 -5.902 -16.542 -8.342 -24.418 -12.114 13.554 -6.786 12.842 -5.272 18.59 -7.702 2.132 -0.9 3.382 -0.444 9.274 4.256 9.41 7.504 13.836 7.194 18.466 12.784Z" stroke-width="1"></path><path id="vector_48" fill="#ffffff" d="M190.102 124.0044c-0.724 5.43 -0.542 5.626 -1.612 5.132 -2.53 -1.168 -5.73 -2.106 -6.13 -2.434 -0.272 -0.222 0.496 -5.674 0.82 -5.784 0.21 -0.072 0.498 0 0.728 0.076 5.898 1.956 6.492 1.848 6.194 3.01Z" stroke-width="1"></path><path id="vector_49" fill="#000000" d="M224.202 98.4122c-3.512 -1.278 -1.314 -1.066 -10.256 -5.626 -5.104 -2.602 -10.448 -4.738 -15.264 -7.888 -0.664 -0.434 -1.224 -0.604 -2.08 -0.338 -0.048 0.016 -23.756 8.65 -30.358 11.95 -4.598 2.298 -1.894 4.062 -3.076 21.368 0.64 9.858 -3.64 7.258 7.574 11.954 5.056 2.116 9.65 5.204 14.926 6.874 17.75 5.618 2.006 7.482 40.868 -10.852 1.898 -0.896 0.892 -1.722 1.83 -8.266 1.368 -9.536 2.866 -16.618 -4.164 -19.176Zm-25.906 -11.442c3.916 2.546 26.246 13.166 27.85 15.238 -6.11 1.206 -11.324 7.032 -13.218 4.056 -2.736 -4.3 -4.666 -2.112 -23.75 -16.61 8.844 -3.512 7.862 -3.5 9.118 -2.684Zm-13.788 4.252c2.132 -0.9 3.382 -0.444 9.274 4.256 9.41 7.504 13.836 7.196 18.466 12.786 -15.236 6.79 -14.208 8.014 -21.912 2.776 -8.678 -5.902 -16.542 -8.342 -24.418 -12.114 13.554 -6.786 12.842 -5.274 18.59 -7.704Zm8.558 46.142c-10.4 -3.644 -17.122 -7.766 -27.07 -11.582 -2.196 -0.842 -0.314 0 -0.764 -24.932 8.9 3.994 17.95 7.394 25.754 13.238 3.772 2.824 6.424 1.062 6.17 3.608 -2.08 20.866 -2.244 20.314 -4.09 19.668Zm3.544 -0.432c3.374 -14.624 0.688 -20.018 3.564 -21.25 12.182 -5.222 13.038 -6.246 12.622 -3.724 -2.712 16.372 -2.532 15.39 -3.49 20.294 -1.526 1.628 -5.154 2.592 -11.026 5.766 -0.716 0.386 -1.842 -0.328 -1.666 -1.086h-0.004Zm29.848 -19.668c-0.752 6.258 -0.254 6.722 -1.5 7.07 -1.5 0.42 -9.432 5.31 -13.406 6.918 2.356 -16.024 2.884 -16.282 2.944 -20.746 0.008 -0.632 0.14 -1.14 0.772 -1.352 13.038 -4.374 13.564 -11.622 11.19 8.11Z" stroke-width="1"></path><path id="vector_50" fill="#000000" d="M191.218 121.4742c-12.83 -4.702 -8.696 -2.232 -10.96 4.432 -1.208 3.556 2.92 2.216 8.664 5.654 2.506 1.5 2.304 -1.734 3.104 -7.826 -0.048 -0.792 0.26 -1.868 -0.808 -2.26Zm-1.116 2.53c-0.724 5.43 -0.542 5.626 -1.612 5.132 -2.53 -1.168 -5.73 -2.106 -6.13 -2.434 -0.272 -0.222 0.496 -5.674 0.82 -5.784 0.21 -0.072 0.498 0 0.728 0.076 5.898 1.956 6.492 1.848 6.194 3.01Z" stroke-width="1"></path></g><g id="box 4"><path id="vector_51" fill="#d2e1c2" d="m154.434 278.956 -7.148 -13.992c-0.048 0.024 8.808 -67.574 8.816 -67.626 1.454 -8.726 -0.542 -7.944 6.078 1.44 1.308 1.854 0.958 0.096 -7.746 80.178Z" stroke-width="1"></path><path id="vector_52" fill="#e0fbc6" d="M193.218 197.5098c-5.216 0.656 -23.988 0.542 -28.412 0.35 -1.476 -0.064 -1.408 -0.49 -6.15 -8.378 32.868 -1.36 19.934 -3.202 34.562 8.028Z" stroke-width="1"></path><path id="vector_53" fill="#e0fbc6" d="M195.552 201.194c-0.19 -0.018 -3.224 27.306 -9.102 81.972H155.952c9.082 -83.5782 8.164 -83.5402 10.738 -83.4162 25.414 1.2242 28.734 -2.056 28.862 1.4442Z" stroke-width="1"></path><path id="vector_54" fill="#000000" d="M186.07 188.52c-1.94 -1.85 -3.126 -2.084 -5.528 -1.904 -2.548 0.19 -19.428 0.712 -20.128 0.742 -4.368 0.188 -4.498 0.764 -5.158 3.812 -0.04 0.526 -9.15 70.53 -9.71 74.684 3.654 7.15 9.694 19.23 9.694 19.23s32.872 0.092 32.972 0.092c0.004 -0.052 9.178 -83.778 9.106 -83.79 0.226 -3.64 1.172 -1.024 -11.25 -12.866h0.002Zm7.15 8.99c-5.216 0.656 -23.988 0.542 -28.412 0.35 -1.476 -0.064 -1.408 -0.49 -6.15 -8.378 32.868 -1.36 19.934 -3.202 34.562 8.028Zm-38.784 81.446 -7.148 -13.992c-0.048 0.024 8.808 -67.574 8.816 -67.626 1.454 -8.726 -0.542 -7.944 6.078 1.44 1.308 1.854 0.958 0.096 -7.746 80.178Zm32.016 4.212H155.954c2.692 -24.772 8.594 -77.552 8.916 -80.864 0.258 -2.664 1.01 -2.59 1.824 -2.552 25.414 1.224 28.734 -2.056 28.862 1.444 -0.19 -0.018 -3.226 27.306 -9.104 81.972Z" stroke-width="1"></path></g><g id="cart"><path id="vector_55" fill="#e9edec" d="M260.458 335.846c9.866 15.158 -1.16 30.7 -15.478 28.606 19.84 -5.346 13.334 -33.456 -0.888 -35.438 4.32 -1.328 12.376 0.708 16.366 6.832Z" stroke-width="1"></path><path id="vector_56" fill="#bac4c6" d="M239.854 331.154c5.652 -1.25 11.66 2.652 14.196 9.562 3.26 8.882 -0.398 18.178 -6.236 20.224 -7.876 2.754 -12.158 0.518 -14.43 -3.866 -0.208 -0.406 -0.338 -0.634 0.314 -0.88 12.922 -4.814 12.738 -4.572 12.694 -8.12 -0.024 -2.16 -0.704 -4.066 -1.52 -5.994 -0.652 -1.54 -1.09 -2.726 -4.83 -1.134 -6.492 2.76 -9.98 4.302 -9.98 4.302 -0.03 -7.928 5.062 -13.046 9.792 -14.094Z" stroke-width="1"></path><path id="vector_57" fill="#bac4c6" d="M268.138 212.294c0.15 -1.278 13.92 -4.562 15.014 -4.814 -0.526 1.764 -2.156 7.344 -2.78 9.428 -2.492 0.576 -5.408 1.048 -12.086 2.952 -2.536 0.724 -0.624 -3.53 -0.15 -7.566h0.002Z" stroke-width="1"></path><path id="vector_58" fill="#ff9fa3" d="M82.088 179.5602v5.668c32.276 9.328 68.342 19.5898 116.656 32.8418 18.054 -3.004 60.924 -14.66 92.298 -23.4098l3.968 3.0198 -1.352 5.272c-26.228 7.522 -14.016 4.296 -54.908 14.382 -41.024 10.12 -31.722 8.498 -45.662 9.302 -75.128 -22.246 -98.778 -28.5558 -121.492 -38.2918 -1.538 -0.658 -2.578 -6.004 2.58 -7.712 1.308 -0.434 2.852 -0.474 7.912 -1.072Z" stroke-width="1"></path><path id="vector_59" fill="#e9edec" d="M186.56 343.238c7.446 0.824 11.842 -2.27 14.264 -8.56 1.314 -3.412 1.116 -10.024 -2.32 -14.48 -2.858 -3.704 -7.476 -6.356 -12.428 -5.69 13.016 3.632 14.618 25.552 0.484 28.73Z" stroke-width="1"></path><path id="vector_60" fill="#bac4c6" d="M175.62 326.606c1.942 -0.354 3.948 -0.222 5.866 -0.876 2.924 -0.998 6.972 6.496 1.054 8.902 -3.278 1.332 -7.784 -0.048 -6.178 2.132 4.136 5.616 5.288 4.67 7.252 4.69 8.7 0.788 12.552 -9.08 11.242 -14.164 -1.73 -6.708 -3.4 -9.848 -10.366 -11.026 -5.59 -0.946 -7.962 3.68 -10.01 8.792 -0.314 0.784 -0.558 1.862 1.142 1.552l-0.002 -0.002Z" stroke-width="1"></path><path id="vector_61" fill="#bac4c6" d="M168.794 386.516c-0.668 0.096 -0.752 0.302 -1.122 0.616 4.968 0.752 9.29 -0.194 13.092 -3.218 15.224 -12.11 3.128 -36.632 -13.394 -33.58 16.39 2.426 18.912 33.686 1.424 36.182Z" stroke-width="1"></path><path id="vector_62" fill="#e9edec" d="M152.386 370.002c0.53 6.13 4.292 10.332 7.03 13.28 2.836 3.052 13.712 1.086 15.92 -3.454 0.724 -1.492 1.734 -2.816 2.418 -4.408 2.22 -5.172 0.206 -12.846 -2.256 -16.776 -2.546 -4.062 -5.608 -5.354 -9.664 -6.198 -4.578 -0.952 -6.236 -0.164 -9.774 4.61 -2.504 3.38 -3.834 7.094 -3.674 12.946Z" stroke-width="1"></path><path id="vector_63" fill="#e9edec" d="M89.03 358.6c1.638 1.386 8.728 1.532 12.762 -2.226 4.63 -4.314 6.326 -14.064 -0.282 -22.386 -2.45 -3.084 -6.806 -3.646 -6.846 -3.662 -9.202 -3.748 -19.906 16.208 -5.634 28.274Z" stroke-width="1"></path><path id="vector_64" fill="#bac4c6" d="M96 361.584c10.758 3.242 24.07 -11.492 15.01 -25.95 -3.196 -5.1 -9.372 -8.728 -15.646 -7.32 11.43 2.804 15.882 16.522 9.75 27.258 -2.852 4.994 -8.58 5.256 -9.114 6.012Z" stroke-width="1"></path><path id="vector_65" fill="#bac4c6" d="M189.532 364.504c0.588 1.552 0.556 3.18 0.638 4.998 13.466 -4.388 45.312 -16.546 51.582 -18.364 3.56 -1.032 3.026 -3.772 1.568 -7.178 -1.612 -3.77 -0.294 -0.83 -33.214 11.572 -5.706 2.15 -11.668 4.894 -19.784 7.48 -0.84 0.268 -1.084 0.722 -0.79 1.494v-0.002Z" stroke-width="1"></path><path id="vector_66" fill="#bac4c6" d="M203.098 336.128c16.454 3.082 5.838 0.75 23.94 5.032 1.512 0.358 1.288 -0.374 1.46 -1.23 0.182 -0.916 1.42 -1.834 0.608 -2.646 -0.564 -0.564 -12.608 -2.752 -14.442 -3.048 -9.942 -1.612 -11.394 -3.068 -11.278 -1.222 0.136 2.156 -2.104 2.778 -0.29 3.118l0.002 -0.004Z" stroke-width="1"></path><path id="vector_67" fill="#bac4c6" d="M178.192 302.116c-0.04 1.75 2.76 10.344 2.772 10.384 0.44 1.442 0.016 0.45 5.3 -0.178 2.418 -0.288 -0.162 -2.57 -0.354 -8.124 -0.03 -0.856 -0.072 -0.63 -7.718 -2.082Z" stroke-width="1"></path><path id="vector_68" fill="#bac4c6" d="M115.072 338.688c0.452 1.2 0.136 2.984 1.23 3.542 1.752 0.894 11.38 -1.554 37.422 -5.326 17.448 -2.526 24.122 -2.676 29.074 -4.644 1.182 -0.47 0.81 -1.694 0.54 -2.63 -0.308 -1.058 -0.792 -2.112 -2.196 -1.91 -3.088 0.442 -64.204 9.79 -66.416 9.584 -0.206 0.716 0.202 1.004 0.346 1.384Z" stroke-width="1"></path><path id="vector_69" fill="#bac4c6" d="M114.588 353.062c-0.012 0.816 0.556 0.908 1.032 1.056 3.36 1.048 6.496 2.68 9.81 3.83 21.048 7.292 24.476 10.258 24.62 8.69 0.456 -4.946 2 -5.926 0.306 -6.218 -2.424 -0.418 -33.83 -13.196 -34.486 -11.39 -0.494 1.364 -0.342 2.914 -1.282 4.032Z" stroke-width="1"></path><path id="vector_70" fill="#bac4c6" d="M101.24 326.128c4.714 0.44 6.624 4.026 7.12 2.08 6.598 -25.97 9.754 -38.4 11.812 -41.262 0.458 -0.636 0.628 -1.064 -0.506 -1.324 -2.974 -0.68 -5.756 -1.764 -7.638 -2.156 -1.558 -0.324 -2.838 10.176 -6.974 26.356 -3.396 13.288 -5.852 16.116 -3.814 16.306Z" stroke-width="1"></path><path id="vector_71" fill="#bac4c6" d="M139.424 280.304c0.564 0.956 2.342 1.128 3.67 1.386 2.788 0.542 5.418 1.696 8.286 1.978 4.992 0.492 6.664 2.418 6.724 0.266 0.19 -6.826 1.03 -7.302 -0.326 -7.666 -4.752 -1.274 -5.024 -0.902 -17.344 -4.198 -1.52 -0.406 -1.074 -0.29 -1.074 4.094 -0.04 0 -0.55 3.098 0.064 4.14Z" stroke-width="1"></path><path id="vector_72" fill="#bac4c6" d="M107.998 202.954c0.644 3.712 1.478 7.216 1.58 10.824 0.044 1.576 14.906 4.8 21.474 6.854 1.312 0.41 0.842 0.116 1.186 -10.1 0.042 -1.222 0.216 -0.7 -24.24 -7.578Z" stroke-width="1"></path><path id="vector_73" fill="#bac4c6" d="M116.808 266.946c1.228 4.636 -0.478 7.77 2.052 8.39 12.288 3.01 12.602 4.106 12.52 1.718 -0.204 -6.082 0.886 -7.128 -0.478 -7.404 -6.184 -1.25 -14.582 -4.552 -14.094 -2.704Z" stroke-width="1"></path><path id="vector_74" fill="#bac4c6" d="M100.294 261.33c0.804 2.24 1.778 9.47 4.11 9.946 7.51 1.536 6.288 5.016 5.14 -6.37 -0.182 -1.81 -4.062 -1.42 -9.25 -3.576Z" stroke-width="1"></path><path id="vector_75" fill="#bac4c6" d="M93.856 238.806c0.998 4.528 2.66 8.818 3.926 13.224 0.296 1.03 0.832 1.48 2.028 1.694 6.194 1.108 8.698 3.362 8.41 1.058 -0.49 -3.93 -1.63 -7.742 -2.092 -11.684 -0.116 -0.986 0.132 -0.624 -12.272 -4.292Z" stroke-width="1"></path><path id="vector_76" fill="#bac4c6" d="M90.968 229.794c0.368 1.146 -0.266 0.804 11.752 3.972 2.414 0.636 1.632 0.626 -0.568 -11.378 -0.348 -1.902 0.422 -1.118 -14.456 -5.732 -0.896 -0.278 -1.008 -0.188 3.272 13.138Z" stroke-width="1"></path><path id="vector_77" fill="#bac4c6" d="M80.476 192.914c2.208 9.71 2.216 8.694 3.036 12.366 0.47 2.1 0.196 1.478 13.872 5.534 3.114 0.924 3.226 1.238 2.82 -1.592 -1.374 -9.572 -1.412 -9.254 -2.104 -9.482 -4.93 -1.634 -14.818 -5.574 -17.624 -6.826Z" stroke-width="1"></path><path id="vector_78" fill="#bac4c6" d="M139.042 222.002c-0.056 2.332 2.098 0.826 15.978 6.054 1.642 0.618 3.574 0.58 5.274 1.294 0.578 0.244 0.82 0.02 0.864 -0.632 0.704 -10.464 2.264 -9.96 0.54 -10.476 -19.972 -5.986 -16.968 -5.274 -19.944 -6.102 -3.714 -1.034 -2.44 -1.584 -2.712 9.862Z" stroke-width="1"></path><path id="vector_79" fill="#bac4c6" d="M232.58 283.17c13.244 -3.918 8.434 -2.666 16.012 -4.678 1.624 -0.432 1.15 -0.35 2.554 -8.668 -19.966 5.964 -19.672 5.374 -19.688 6.782 -0.066 6.012 -0.848 7.146 1.122 6.564Z" stroke-width="1"></path><path id="vector_80" fill="#bac4c6" d="M259.602 275.836c11.474 -3.276 10.148 -0.592 12.536 -11.25 -0.93 0.222 -1.69 0.37 -2.434 0.592 -10.47 3.128 -10.392 2.438 -10.462 4.194 -0.21 5.334 -1.538 7.006 0.36 6.464Z" stroke-width="1"></path><path id="vector_81" fill="#bac4c6" d="M260.882 260.036c10.538 -3.294 9.748 -3.25 10.536 -3.296 2.028 -0.12 2.484 -1.314 2.662 -3.022 1.148 -11.022 1.346 -6.926 0.866 -11.354 -10.292 3.556 -5.71 2.17 -10.368 3.414 -2.614 0.698 -2.104 1.624 -3.696 14.258Z" stroke-width="1"></path><path id="vector_82" fill="#bac4c6" d="M265.612 238.322c3.278 -0.56 6.224 -2.238 9.466 -2.9 1.316 -0.268 1.712 -0.832 1.908 -2.16 1.21 -8.188 3.454 -10.68 0.14 -9.448 -13.786 5.128 -10.852 1.416 -13.116 13.434 -0.128 2.108 1.01 1.174 1.6 1.074h0.002Z" stroke-width="1"></path><path id="vector_83" fill="#bac4c6" d="M169.248 231.126c0.022 1.56 23.9 8.298 24.166 8.314 0.832 -3.64 0.676 -7.266 1.142 -10.832 0.098 -0.748 -0.108 -0.926 -0.748 -0.982 -5.474 -0.482 -23.698 -8.47 -23.916 -6.484 -0.364 3.318 -0.692 6.632 -0.644 9.982v0.002Z" stroke-width="1"></path><path id="vector_84" fill="#bac4c6" d="M185.29 259.346c2.63 0.904 6.91 2.402 6.958 0.608 0.322 -11.776 1.754 -11.844 -0.052 -12.226 -2.936 -0.622 -5.708 -1.83 -8.58 -2.662 -7.124 -2.066 -6.498 -0.474 -13.466 -3.186 -1.138 -0.442 -1.322 -1.106 -1.782 8.052 -0.322 6.428 -0.874 3.302 16.92 9.416l0.002 -0.002Z" stroke-width="1"></path><path id="vector_85" fill="#bac4c6" d="M179.328 275.918c11.886 3.51 11.606 3.178 11.664 1.886 0.39 -8.72 1.09 -8.998 -0.152 -9.266 -0.026 -0.006 -7.61 -2.242 -22.752 -6.708 -0.776 3.374 -0.494 6.842 -0.902 10.236 -0.126 1.05 0.254 0.342 12.142 3.854v-0.002Z" stroke-width="1"></path><path id="vector_86" fill="#bac4c6" d="M166.462 287.282c20.456 4.15 17.864 3.69 20.498 3.912 2.714 0.764 2.218 -1.52 2.754 -4.362 0.392 -2.08 0.402 -2.062 -1.588 -2.348 -6.356 -0.914 -21.424 -7.638 -21.758 -5.024 -0.296 2.32 -0.094 4.698 -0.748 6.982 -0.186 0.648 0.352 0.74 0.842 0.84Z" stroke-width="1"></path><path id="vector_87" fill="#bac4c6" d="M198.366 289.346c0.056 3.584 3.596 2.004 7.908 0.824 17.662 -4.832 17.62 -4.222 17.314 -5.876 -0.322 -1.746 0.378 -3.406 0.246 -5.132 -0.12 -1.56 0.582 -1.216 -10.26 1.874 -11.744 3.346 -12.348 3.438 -13.57 3.532 -1.03 0.078 -0.75 0.088 -1.638 4.778Z" stroke-width="1"></path><path id="vector_88" fill="#bac4c6" d="M200.192 278.07c0.772 0.464 2.42 -0.464 3.658 -0.842 5.662 -1.734 11.304 -3.518 16.956 -5.272 3.072 -0.954 3.302 -0.25 3.452 -3.37 0.464 -9.746 0.492 -9.07 -0.648 -8.724 -0.04 0.012 -3.266 0.956 -21.884 7.332 -1.718 0.588 -1.208 2.492 -1.74 7.302 0.258 1.158 -0.906 2.904 0.206 3.574Z" stroke-width="1"></path><path id="vector_89" fill="#bac4c6" d="M213.572 255.398c10.216 -3.604 8.596 -2.838 10.288 -3.492 1.42 -0.548 0.99 -0.022 0.99 -11.5 -3.394 1.706 -21.922 4.488 -22.17 7.658 -0.816 10.494 -1.098 8.74 -1.206 10.558 -0.076 1.278 -1.062 1.418 12.098 -3.224Z" stroke-width="1"></path><path id="vector_90" fill="#bac4c6" d="M205.59 237.936c4.114 -0.92 8.146 -2.054 12.128 -3.466 4.626 -1.64 7.218 -0.912 7.408 -2.706 1.122 -10.512 1.392 -9.48 -0.142 -9.214 -8.482 1.468 -11.064 2.528 -19.188 4.3 -1.878 0.41 -1.43 0.588 -2.238 8.74 -0.132 2.936 -0.152 2.834 2.032 2.346Z" stroke-width="1"></path><path id="vector_91" fill="#bac4c6" d="M246.792 226.452c11.62 -3.492 11.34 -3.62 11.454 -4.332 0.45 -2.77 0.986 -5.522 1.54 -8.53 -9.592 2.34 -10.886 3.29 -24.024 6.302 -1.106 0.254 -1.678 0.652 -1.714 1.902 -0.072 2.546 -0.55 5.068 -0.572 7.626 -0.012 1.444 -0.814 1.278 13.312 -2.968h0.004Z" stroke-width="1"></path><path id="vector_92" fill="#e9ebea" d="M199.342 282.676c0.064 0.584 -0.61 0.752 12.702 -3.212 14.066 -4.188 14.046 -4.898 13.864 -2.384 -0.522 7.236 -1.388 8.076 0.434 7.626 2.968 -0.736 2.978 -0.7 3.094 -3.808 0.322 -8.668 -1.524 -6.116 13.268 -10.574 13.426 -4.046 10.538 -5.342 9.266 6.01 -0.236 2.104 3.286 0.65 4.392 0.41 0.37 -0.08 0.45 -0.35 0.478 -0.696 0.192 -2.34 0.488 -4.682 0.588 -7.026 0.114 -2.702 0.534 -2.506 14.39 -6.166 0.8 -0.212 0.636 -0.202 1.504 -4.618 -0.596 -0.374 -0.106 -0.334 -11.604 3.476 -4.67 1.546 -2.068 -2.75 -0.942 -15.112 0.122 -1.348 0.57 -2.314 9.77 -4.842 1.552 -0.426 2.948 -1.358 4.602 -1.428 0.656 -0.028 0.588 -0.434 0.91 -2.924 0.148 -0.104 0.194 -0.22 0.032 -0.354 -0.29 0.434 -12.266 3.62 -13.292 4.11 -2.554 1.22 0.614 -8.688 1.126 -14.466 0.114 -1.278 1.572 -0.52 10.396 -3.894 1.452 -0.556 2.884 -1.148 4.46 -1.302 0.604 -0.06 1.678 -2.202 1.38 -2.65 -0.308 -0.464 -0.09 -0.356 -8.924 2.208 -6.56 1.904 -6.796 2.288 -6.492 0.596 1.458 -8.096 1.87 -9.352 1.25 -9.28 -5.286 0.62 -4.176 0.02 -5.108 4.642 -0.452 2.244 -0.862 4.484 -0.914 6.782 -0.024 1.05 0.206 0.614 -17.412 5.92 -10.472 3.154 -10.74 3.696 -10.738 1.278 0.004 -9.77 1.412 -10.494 -0.47 -10.03 -3.624 0.894 -3.67 0.792 -3.728 1.79 -0.69 11.78 -0.43 11.474 -1.508 11.696 -6.058 1.248 -11.864 3.45 -17.882 4.846 -4.178 0.97 -5.008 0.658 -5.02 2.99 -0.012 2.558 -0.096 2.378 2.414 1.632 19.524 -5.798 10.48 -2.904 19.124 -5.398 1.058 -0.306 2.116 0.49 2.118 1.592 0.022 12.792 0.188 12.846 -1.948 13.512 -2.864 0.892 -21.418 6.99 -22.43 7.152 -0.942 0.15 -1.41 0.628 -1.432 1.672 -0.022 1.034 -0.354 2.056 -0.21 3.202 16.114 -5.502 24.184 -8.256 24.208 -8.262 1.93 -0.736 1.478 -0.104 0.936 14.322 -0.056 1.5 -1.44 1.44 -2.284 1.646 -6.822 1.664 -13.44 3.996 -20.182 5.908 -4.516 1.28 -4.498 0.58 -4.186 3.41v-0.002Z" stroke-width="1"></path><path id="vector_93" fill="#e9ebea" d="M84.51 208.884c1.922 5.912 1.65 5.664 2.294 5.784 5.166 0.954 10.006 3.026 15.078 4.3 1.714 0.43 1.966 1.004 3.576 11.004 0.87 5.41 2.12 7.212 -0.032 6.628 -9.934 -2.694 -10.8 -3.02 -13.39 -3.788 0.254 4.874 1.382 3.456 14.692 7.834 0.744 0.244 1.236 1.042 1.312 1.858 1.728 18.596 7.622 17.544 -9.388 12.978 0.198 0.442 0.35 0.616 0.35 0.792 0.026 4.642 5.044 3.606 10.872 5.96 1.93 0.78 1.48 1.654 2.402 9.038 0.34 2.728 0.358 2.726 3.298 3.13 -0.262 -2.614 -0.12 -5.22 -0.78 -7.762 -1.336 -5.144 0.866 -2.31 17.472 1.404 1.384 0.31 1.524 0.084 1.006 9.762 -0.052 0.962 0.208 1.384 1.166 1.592 3.02 0.658 3 0.688 2.952 -2.522 -0.096 -6.524 -0.498 -8.422 1.584 -7.336 0.56 0.292 19.534 4.814 20.146 4.956 1.738 0.4 1.638 0.51 0.776 9.758 -0.166 1.774 0.772 1.354 1.642 1.552 2.462 0.56 2.472 0.568 2.658 -1.978 0.148 -2.032 0.348 -4.07 0.372 -6.106 0.02 -1.83 0.586 -1.992 8.466 0.32 15.612 4.58 17.21 6.31 17.294 3.942 0.026 -0.716 1.194 -2.858 -0.162 -3.026 -3.776 -0.466 -7.818 -1.69 -11.478 -2.674 -12.218 -3.286 -13.338 -2.452 -13.108 -5.086 1.222 -14.044 0.096 -12.738 1.686 -11.99 5.786 2.722 11.548 2.65 21.824 6.858 2.622 1.074 2.684 0.994 2.916 -1.676 0.242 -2.78 -0.386 -0.708 -9.564 -4.078 -21.262 -7.81 -15.414 1.974 -15.288 -20.544 0.004 -0.62 0.104 -0.96 1.034 -0.596 9.246 3.63 12.52 2.35 21.872 6.098 2.94 1.178 3.012 1.07 3.278 -2.002 0.292 -3.366 -1.06 -1.362 -19.262 -7.706 -6.816 -2.376 -6.726 -1.464 -6.716 -3.258 0.058 -12.778 2.148 -11.928 -0.868 -12.714 -1.856 -0.484 -2.88 0.256 -3.052 2.218 -0.268 3.068 -0.528 6.14 -0.744 9.216 -0.108 1.544 0.532 1.146 -13.804 -3.076 -9.002 -2.652 -8.61 -2.394 -9.038 -2.522 -3.378 -1.014 -2.678 -0.246 -2.482 -13.088 0.016 -1.038 -2.076 -2.296 -3.016 -1.814 -0.502 0.258 -0.244 0.752 -0.254 1.118 -0.27 10.884 0.402 11.944 -1.71 11.366 -22.318 -6.102 -20.332 -6.12 -22.27 -6.306 -1.918 -0.184 -2.428 -1.448 -2.714 -6.492 -0.042 -0.728 -1.042 -7.774 -1.73 -8.006 -5.444 -1.838 -5.564 -2.026 -5.048 -0.41 0.908 2.844 0.96 5.832 1.504 8.736 1.004 5.358 0.538 4.04 -13.948 -0.486 -1.09 -0.34 -2.284 -0.334 -3.676 -1.154v-0.006Z" stroke-width="1"></path><path id="vector_94" fill="#e9ebea" d="M72.252 190.5678c9.866 37.1962 16.27 52.8722 20.22 65.8902 7.648 25.206 0.51 19.78 38.442 30.226 49.466 13.622 55.206 16.186 61.862 15.496 12.388 -1.282 76.512 -22.952 78.478 -23.834 4.366 -1.96 5.786 -11.946 7.224 -18.782 2.102 -9.996 10.794 -48.63 12.734 -54.19 -1.13 0.092 -6.094 0.89 -6.126 2.044 -0.088 3.35 -4.816 15.368 -7.514 33.096 -0.592 3.886 -0.836 12.98 -4.814 30.012 -0.7 2.996 -2.606 4.58 -5.37 5.276 -61.788 15.592 -71.08 22.266 -71.012 14.04 0.01 -1.324 4.218 -38.532 5.096 -55.5 0.288 -5.57 1.568 -6.936 -0.47 -6.596 -1.38 0.23 -2.716 0.778 -4.152 0.652 -0.58 -0.052 -0.536 0.384 -0.54 0.73 0 0.04 -2.624 37.604 -2.732 38.726 -2.812 28.808 0.19 26.688 -15.666 23.952 -7.212 -1.246 -58.726 -13.808 -71.672 -17.874 -7.546 -2.37 -5.432 -7.002 -11.656 -25.476 -6.044 -17.938 -11.162 -39.33 -15.446 -55.3902 -0.404 -1.516 -1.096 -2.806 -4.182 -3.826 -2.622 -0.674 -2.704 1.328 -2.704 1.328Z" stroke-width="1"></path><path id="vector_95" fill="#bac4c6" d="M112.652 235.844c0.112 1.162 0.22 0.638 11.188 3.866 11.504 3.384 8.038 5.386 8.386 -8.57 0.042 -1.694 0.31 -0.914 -19.972 -7.184 -2.384 -0.738 -0.508 2.528 0.398 11.888Z" stroke-width="1"></path><path id="vector_96" fill="#bac4c6" d="M139.192 233.832c1.158 15.484 -3.02 8.418 9.802 13.772 3.302 1.378 6.744 2.31 10.064 3.604 1.042 0.406 1.194 0.206 1.218 -0.86 0.262 -11.43 0.974 -11.28 -0.14 -11.62 -21.448 -6.552 -21.12 -7.26 -20.942 -4.894l-0.002 -0.002Z" stroke-width="1"></path><path id="vector_97" fill="#bac4c6" d="M140.472 265.28c4.166 1.13 8.258 2.504 12.484 3.41 5.314 1.14 6.194 2.76 6.282 1.118 0.53 -9.93 1.37 -10.608 -0.546 -11.016 -6.072 -1.294 -11.728 -3.918 -17.688 -5.59 -1.846 -0.518 -1.664 0.06 -1.62 1.292 0.258 7.204 -1.162 10.176 1.09 10.788l-0.002 -0.002Z" stroke-width="1"></path><path id="vector_98" fill="#bac4c6" d="M114.184 245.186c0.414 3.23 1.068 6.368 1.142 9.522 0.064 2.71 1.106 3.63 3.688 4.32 12.752 3.41 13.25 4.404 13.204 2.12 -0.19 -9.5 1.062 -10.426 -1.058 -11.036 -1.574 -0.452 -14.476 -4.464 -16.976 -4.926Z" stroke-width="1"></path><path id="vector_99" fill="#bac4c6" d="M233.268 248.52c4.798 -2.04 22.43 -6.368 22.62 -7.92 1.234 -10.048 1.758 -10.378 0.322 -9.83 -6.36 2.43 -20.592 6.556 -21.9 6.818 -1.424 0.286 -1.042 0.14 -1.042 10.932Z" stroke-width="1"></path><path id="vector_100" fill="#bac4c6" d="M233.228 268.45c5.312 -1.436 17.62 -5.514 17.66 -5.53 0.864 -0.352 1.432 -0.66 1.584 -1.616 0.612 -3.852 1.568 -7.654 1.842 -11.8 -22.708 7.626 -22.108 6.93 -22.114 9.082 -0.024 9.6 -1.036 10.424 1.026 9.866l0.002 -0.002Z" stroke-width="1"></path><path id="vector_101" fill="#bac4c6" d="M163.306 374.85c2.884 0.152 5.75 -3.084 5.748 -6.138 0 -2.256 -2.792 -5.086 -5.132 -5.16 -7.884 -0.254 -9.238 10.842 -0.616 11.298Z" stroke-width="1"></path><path id="vector_102" fill="#bac4c6" d="M86.694 346.144c-0.096 2.454 2.822 4.556 5.66 4.382 2.356 -0.144 4.906 -3.162 4.802 -5.676 -0.198 -4.802 -10.112 -7.62 -10.462 1.294Z" stroke-width="1"></path><path id="vector_103" fill="#000000" d="M286.378 191.5c-0.326 0.492 -0.958 1.368 -1.44 1.956 4.12 1.062 6.914 2.014 7.992 2.86 1.826 1.44 1.292 5.684 -0.92 6.412 -3.444 1.13 -6.938 2.136 -10.446 3.06 -97.398 25.658 -81.136 21.708 -102.026 15.192 -45.022 -14.032 -70.316 -17.218 -106.856 -33.994 -1.94 -0.888 -1.958 -2.92 -0.25 -4.32 1.602 -1.308 2.204 -1.114 9.658 -3.106 0.206 -0.292 0.008 -1.612 -0.516 -2.332 -0.538 0.158 -8.654 2.586 -8.826 2.598 -1.214 1.262 -4.794 2.156 -3.202 7.228 0.358 1.126 1.248 2.14 1.568 3.394 8.748 34.276 16.648 56.868 18.018 61.408 8.502 28.166 5.732 26.888 19.418 30.572 1.786 0.484 0.712 0.136 -3.476 18.184 -2.046 8.824 -6.516 24.024 -6.528 24.064 -0.22 0.604 -0.394 0.934 -1.146 0.95 -10.626 0.222 -17.458 8.88 -17.432 18.61 0.056 18.838 21.788 27.176 32.442 12.946 1.894 -2.534 1.244 -1.126 11.282 2.382 10.086 3.526 0.14 -0.366 22.88 8.59 1.73 0.684 3.258 -0.114 3.93 4.174 3.056 19.422 30.35 26.022 38.732 3.326 1.122 -3.048 0.124 -3.836 1.85 -4.392 8.144 -2.618 6.364 -2.406 38.088 -13.654 1.404 -0.498 1.522 -0.278 1.85 0.482 1.278 2.96 7.21 7.812 13.006 9.012 6.166 1.276 12.784 -0.678 18.24 -7.166 6.508 -7.738 4.926 -21.376 -1.48 -27.282 -14.484 -13.354 -27.322 -3.294 -29.928 2.188 -0.552 1.154 -0.092 0.374 -21.51 -3.786 -5.136 -0.998 -5.72 -0.95 -5.688 -2.38 0.262 -10.9 -10.892 -15.948 -13.466 -16.224 -0.458 -0.048 -0.744 -0.262 -0.868 -0.752 -0.628 -2.566 -1.448 -5.084 -1.584 -7.864 1.648 0.598 4.768 0.394 8.742 -0.324 14.676 -2.648 67.886 -19.76 72.66 -21.704 9.766 -3.976 8.066 -9.834 15.508 -42.06 7.098 -30.748 7.86 -33.906 9.942 -36.772 4.17 -5.724 1.676 -8.656 -8.218 -11.476Zm-18.24 20.794c0.15 -1.28 13.92 -4.56 15.014 -4.814 -0.526 1.764 -2.158 7.344 -2.78 9.428 -2.492 0.576 -5.384 1.134 -12.086 2.952 -2.526 0.756 -0.622 -3.53 -0.15 -7.566h0.002Zm-34.66 17.126c0.02 -2.558 0.502 -5.08 0.572 -7.626 0.036 -1.246 0.608 -1.644 1.714 -1.902 13.132 -3.016 14.432 -3.956 24.024 -6.302 -0.554 3.008 -1.094 5.76 -1.54 8.53 -0.118 0.712 0.162 0.84 -11.454 4.332 -14.122 4.248 -13.326 4.408 -13.312 2.968h-0.004Zm-29.92 6.168c0.812 -8.154 0.36 -8.33 2.238 -8.74 8.124 -1.77 10.706 -2.83 19.188 -4.3 1.534 -0.26 1.256 -1.3 0.142 9.214 -0.19 1.794 -2.782 1.066 -7.408 2.706 -3.978 1.416 -8.014 2.55 -12.128 3.466 -2.184 0.486 -2.164 0.588 -2.032 -2.346Zm-0.344 6.698c0.014 -2.328 0.844 -2.02 5.02 -2.99 6.016 -1.396 11.824 -3.596 17.882 -4.846 1.078 -0.216 0.842 0.086 1.508 -11.696 0.06 -0.998 0.104 -0.896 3.728 -1.79 1.882 -0.466 0.478 0.258 0.47 10.03 0 2.414 0.266 1.87 10.738 -1.278 17.622 -5.31 17.388 -4.87 17.412 -5.92 0.048 -2.292 0.458 -4.532 0.914 -6.782 0.932 -4.622 -0.172 -4.014 5.108 -4.642 0.62 -0.072 0.202 1.182 -1.25 9.28 -0.306 1.694 -0.068 1.306 6.492 -0.596 8.832 -2.562 8.616 -2.67 8.924 -2.208 0.302 0.452 -0.772 2.59 -1.38 2.65 -1.576 0.152 -3.012 0.748 -4.46 1.302 -8.824 3.374 -10.284 2.614 -10.396 3.894 -0.514 5.78 -3.68 15.686 -1.126 14.466 1.026 -0.49 13.002 -3.676 13.292 -4.11 0.16 0.128 0.116 0.246 -0.032 0.354 -0.322 2.494 -0.25 2.896 -0.91 2.924 -1.65 0.068 -3.048 1.002 -4.602 1.428 -9.198 2.53 -9.648 3.492 -9.77 4.842 -1.146 12.36 -3.728 16.658 0.942 15.112 11.496 -3.806 11.004 -3.85 11.604 -3.476 -0.868 4.412 -0.7 4.4 -1.504 4.618 -13.864 3.636 -14.278 3.462 -14.39 6.166 -0.1 2.344 -0.394 4.686 -0.588 7.026 -0.028 0.35 -0.108 0.614 -0.478 0.696 -1.106 0.238 -4.63 1.694 -4.392 -0.41 1.28 -11.35 4.158 -10.06 -9.266 -6.01 -14.79 4.454 -12.94 1.908 -13.268 10.574 -0.114 3.11 -0.12 3.074 -3.094 3.808 -1.818 0.452 -0.958 -0.39 -0.434 -7.626 0.18 -2.514 0.202 -1.802 -13.864 2.384 -13.312 3.962 -12.632 3.796 -12.702 3.212 -0.314 -2.832 -0.334 -2.132 4.186 -3.41 6.742 -1.914 13.366 -4.24 20.182 -5.908 0.848 -0.206 2.228 -0.144 2.284 -1.646 0.54 -14.426 0.998 -15.054 -0.936 -14.322 -0.028 0.01 -8.096 2.764 -24.208 8.262 -0.14 -1.146 0.186 -2.168 0.21 -3.202 0.02 -1.044 0.49 -1.524 1.432 -1.672 1.012 -0.162 19.562 -6.262 22.43 -7.152 2.132 -0.664 1.97 -0.72 1.948 -13.512 -0.002 -1.104 -1.062 -1.896 -2.118 -1.592 -8.648 2.498 0.394 -0.406 -19.124 5.398 -2.514 0.744 -2.428 0.926 -2.414 -1.63Zm73.77 -9.024c-0.194 1.328 -0.59 1.89 -1.908 2.16 -3.242 0.66 -6.184 2.338 -9.466 2.9 -0.592 0.1 -1.73 1.034 -1.6 -1.074 2.264 -12.018 -0.664 -8.298 13.116 -13.434 3.314 -1.23 1.056 1.254 -0.142 9.448Zm-5.566 23.476c-0.784 0.044 0.002 0 -10.536 3.296 1.592 -12.632 1.082 -13.562 3.696 -14.258 13.192 -3.542 11.08 -7.152 9.502 7.94 -0.178 1.706 -0.636 2.894 -2.662 3.022Zm0.72 7.846c-2.388 10.66 -1.062 7.98 -12.536 11.25 -1.898 0.542 -0.572 -1.13 -0.358 -6.464 0.068 -1.756 -0.004 -1.054 10.462 -4.194 0.74 -0.222 1.504 -0.37 2.434 -0.592h-0.002Zm-20.992 5.238c-1.404 8.318 -0.93 8.238 -2.554 8.668 -7.578 2.016 -2.766 0.756 -16.012 4.678 -1.97 0.584 -1.186 -0.552 -1.122 -6.564 0.012 -1.408 -0.278 -0.812 19.688 -6.782Zm-27.558 14.47c0.306 1.654 0.346 1.042 -17.314 5.876 -4.312 1.178 -7.85 2.76 -7.908 -0.824 0.888 -4.69 0.608 -4.702 1.636 -4.778 1.222 -0.092 1.826 -0.18 13.57 -3.532 10.844 -3.092 10.144 -3.434 10.26 -1.874 0.132 1.722 -0.566 3.382 -0.244 5.132Zm-23.602 -9.8c0.53 -4.81 0.022 -6.71 1.74 -7.302 18.614 -6.386 21.84 -7.32 21.884 -7.332 1.144 -0.328 1.11 -1.022 0.648 8.724 -0.148 3.122 -0.382 2.422 -3.452 3.37 -5.65 1.756 -11.302 3.532 -16.956 5.272 -1.236 0.378 -2.882 1.3 -3.658 0.842 -1.11 -0.668 0.052 -2.412 -0.206 -3.576v0.002Zm24.864 -34.09c0 11.478 0.43 10.95 -0.99 11.5 -1.694 0.652 -0.072 -0.106 -10.288 3.492 -13.16 4.642 -12.178 4.5 -12.098 3.222 0.108 -1.814 0.39 -0.06 1.206 -10.558 0.246 -3.168 18.774 -5.95 22.17 -7.656Zm-54.958 -19.262c0.218 -1.988 18.442 6.002 23.916 6.484 0.638 0.056 0.848 0.23 0.748 0.982 -0.474 3.564 -0.314 7.192 -1.142 10.832 -0.266 -0.016 -24.142 -6.756 -24.166 -8.314 -0.044 -3.346 0.28 -6.662 0.644 -9.984Zm-28.138 -9.004c2.972 0.83 -0.034 0.132 19.944 6.102 1.726 0.518 0.158 0.012 -0.54 10.476 -0.044 0.652 -0.286 0.876 -0.864 0.632 -1.698 -0.72 -3.632 -0.676 -5.274 -1.294 -13.884 -5.22 -16.034 -3.72 -15.978 -6.054 0.27 -11.446 -1 -10.898 2.712 -9.862Zm-9.514 -1.61c-0.358 10.216 0.126 10.506 -1.186 10.1 -6.568 -2.052 -21.43 -5.278 -21.474 -6.854 -0.104 -3.608 -0.936 -7.112 -1.58 -10.824 24.458 6.878 24.28 6.354 24.24 7.578Zm-26.544 -8.316c0.688 0.23 1.672 7.258 1.712 7.99 0.298 5.042 0.8 6.306 2.714 6.492 1.942 0.18 -0.052 0.216 22.27 6.306 2.112 0.58 1.412 -0.482 1.71 -11.366 0.008 -0.366 -0.244 -0.86 0.254 -1.118 0.942 -0.482 3.034 0.776 3.016 1.814 -0.192 12.842 -0.9 12.078 2.482 13.088 0.426 0.124 0.036 -0.13 9.038 2.522 14.334 4.222 13.69 4.622 13.804 3.076 0.88 -12.404 0.274 -12.356 3.796 -11.434 3.016 0.784 0.93 -0.064 0.868 12.714 -0.008 1.794 -0.096 0.884 6.716 3.258 18.2 6.35 19.55 4.34 19.262 7.706 -0.27 3.074 -0.338 3.182 -3.278 2.002 -9.346 -3.748 -12.618 -2.482 -21.872 -6.098 -0.93 -0.366 -1.03 -0.024 -1.034 0.596 -0.1 22.52 -5.976 12.742 15.288 20.544 9.178 3.372 9.81 1.296 9.564 4.078 -0.23 2.67 -0.298 2.752 -2.916 1.676 -10.276 -4.208 -16.04 -4.138 -21.824 -6.858 -1.588 -0.744 -0.67 -1.478 -1.896 12.568 -0.224 2.634 0.888 2.036 13.104 5.316 3.664 0.986 7.256 2.286 11.034 2.748 1.356 0.168 0.846 1.43 0.822 2.146 -0.088 2.366 -1.68 0.636 -17.294 -3.942 -10.102 -2.96 -8.194 -2.93 -8.838 5.786 -0.184 2.546 -0.198 2.542 -2.658 1.978 -0.87 -0.198 -1.806 0.222 -1.642 -1.552 0.866 -9.246 0.962 -9.36 -0.776 -9.758 -0.612 -0.14 -19.588 -4.666 -20.146 -4.956 -2.088 -1.078 -1.678 0.808 -1.584 7.336 0.044 3.208 0.064 3.176 -2.952 2.522 -0.958 -0.208 -1.218 -0.63 -1.166 -1.592 0.51 -9.676 0.378 -9.456 -1.006 -9.762 -16.612 -3.712 -18.81 -6.544 -17.472 -1.404 0.66 2.546 0.518 5.152 0.78 7.762 -2.94 -0.402 -2.956 -0.402 -3.298 -3.13 -0.92 -7.384 -0.474 -8.254 -2.402 -9.038 -5.828 -2.352 -10.82 -1.32 -10.872 -5.96 0 -0.178 -0.15 -0.354 -0.35 -0.792 17.014 4.562 11.11 5.618 9.388 -12.978 -0.076 -0.822 -0.568 -1.614 -1.312 -1.858 -13.316 -4.368 -14.438 -2.96 -14.692 -7.834 2.59 0.768 3.45 1.094 13.39 3.788 2.152 0.584 0.902 -1.218 0.032 -6.628 -1.614 -10.002 -1.858 -10.578 -3.576 -11.004 -5.072 -1.274 -9.91 -3.358 -15.078 -4.3 -0.644 -0.116 -0.36 0.144 -2.278 -5.768 1.392 0.824 2.586 0.816 3.676 1.154 14.492 4.512 14.954 5.844 13.948 0.488 -0.542 -2.904 -0.594 -5.892 -1.504 -8.736 -0.514 -1.616 -0.402 -1.416 5.048 0.41v0.002Zm79.594 57.13c-17.796 -6.106 -17.25 -2.992 -16.92 -9.416 0.45 -9.158 0.644 -8.494 1.782 -8.052 6.966 2.714 6.342 1.118 13.466 3.186 2.872 0.828 5.638 2.038 8.58 2.662 1.806 0.382 0.376 0.45 0.052 12.226 -0.05 1.794 -4.328 0.298 -6.958 -0.608l-0.002 0.002Zm5.634 17.502c-0.03 0.692 0.09 1.228 -1.628 1.032 -1.484 -0.168 -19.776 -5.168 -21.072 -5.532 -0.934 -0.262 -0.97 -0.394 -0.916 -0.834 0.412 -3.394 0 -6.31 0.782 -9.686l22.752 6.708c0.98 0.232 1 -0.398 0.082 8.31v0.002Zm-1.21 9.984c-0.534 2.844 -0.038 5.13 -2.754 4.362 -2.634 -0.222 -0.034 0.194 -20.498 -3.912 -0.492 -0.096 -1.03 -0.188 -0.844 -0.84 0.656 -2.286 0.454 -4.662 0.748 -6.982 0.338 -2.614 15.408 4.11 21.758 5.024 1.992 0.29 1.982 0.27 1.59 2.348Zm-49.28 -14.76c12.326 3.28 12.594 2.914 17.344 4.198 1.352 0.366 0.514 0.844 0.326 7.666 -0.06 2.152 -1.734 0.224 -6.724 -0.266 -2.868 -0.282 -5.498 -1.436 -8.286 -1.978 -1.324 -0.254 -3.106 -0.428 -3.67 -1.386 -0.616 -1.042 -0.104 -4.138 -0.064 -4.138 0 -4.38 -0.446 -4.502 1.074 -4.096Zm-9.054 4.982c0.08 2.384 -0.234 1.292 -12.52 -1.718 -2.53 -0.616 -0.828 -3.752 -2.052 -8.39 -0.49 -1.846 7.906 1.46 14.094 2.702 1.364 0.278 0.27 1.32 0.478 7.404v0.002Zm-31.086 -15.724c5.192 2.156 9.07 1.762 9.25 3.576 1.158 11.386 2.37 7.914 -5.14 6.37 -2.33 -0.478 -3.302 -7.706 -4.11 -9.946Zm-2.514 -9.3c-1.258 -4.404 -2.928 -8.692 -3.926 -13.224 12.404 3.668 12.154 3.306 12.27 4.292 0.47 3.938 1.596 7.75 2.092 11.684 0.29 2.304 -2.212 0.052 -8.41 -1.058 -1.194 -0.212 -1.728 -0.664 -2.026 -1.694Zm-10.084 -35.374c14.874 4.622 14.106 3.83 14.456 5.732 2.192 12.006 2.984 12.014 0.568 11.378 -12.018 -3.172 -11.384 -2.824 -11.752 -3.972 -4.28 -13.33 -4.168 -13.416 -3.272 -13.138Zm10.404 -16.916c0.69 0.228 0.728 -0.09 2.104 9.482 0.406 2.832 0.294 2.518 -2.82 1.592 -13.674 -4.054 -13.402 -3.436 -13.872 -5.534 -0.82 -3.672 -0.828 -2.656 -3.036 -12.366 2.804 1.248 12.686 5.202 17.624 6.826Zm6.952 110.082c4.138 -16.18 5.414 -26.662 6.974 -26.356 1.878 0.41 4.67 1.472 7.638 2.156 1.134 0.258 0.966 0.688 0.506 1.324 -2.054 2.86 -5.216 15.288 -11.812 41.262 -0.494 1.952 -2.406 -1.636 -7.12 -2.08 -2.04 -0.188 0.418 -3.022 3.814 -16.306Zm-16.022 48.776c-12.176 -10.298 -6.154 -26.378 1.584 -28.508 2.584 -0.712 8.474 0.844 10.896 3.896 6.604 8.318 4.906 18.072 0.282 22.386 -4.03 3.756 -11.124 3.612 -12.762 2.226ZM96 361.576c0.536 -0.756 6.262 -1.018 9.114 -6.012 6.132 -10.734 1.68 -24.45 -9.75 -27.258 6.274 -1.412 12.448 2.216 15.646 7.32 9.058 14.46 -4.252 29.192 -15.01 25.95Zm14.416 -30.43c-0.998 -0.914 -0.74 -0.124 1.338 -8.096 8.072 -30.914 9.332 -37.22 12.16 -36.392 49.804 14.652 51.812 12.818 52.318 16.33 0.486 3.378 2.5 8.042 2.99 10.462 0.196 0.964 0.35 1.458 -0.63 1.956s-5.226 5.288 -5.802 10.156c-0.102 0.86 -0.476 1.416 -1.134 1.594 -1.018 0.278 -56.458 8.14 -56.634 8.152 -2.522 0.168 -1.432 -1.26 -4.606 -4.162Zm72.124 3.478c5.916 -2.402 1.87 -9.894 -1.054 -8.902 -1.918 0.652 -3.924 0.524 -5.866 0.876 -1.702 0.314 -1.456 -0.764 -1.142 -1.552 2.05 -5.112 4.416 -9.738 10.01 -8.792 14.466 2.45 13.026 26.452 -0.874 25.19 -1.966 -0.02 -3.118 0.928 -7.252 -4.69 -1.606 -2.18 2.9 -0.798 6.178 -2.13Zm-66.238 7.6c-1.094 -0.558 -0.788 -2.334 -1.23 -3.542 -0.14 -0.378 -0.55 -0.664 -0.346 -1.384 2.212 0.206 63.326 -9.142 66.416 -9.584 1.404 -0.202 1.886 0.852 2.196 1.91 0.274 0.938 0.644 2.16 -0.54 2.63 -0.454 0.18 -65.052 10.706 -66.496 9.968v0.002Zm64.662 -29.728c-0.012 -0.042 -2.812 -8.636 -2.772 -10.384 7.646 1.452 7.69 1.226 7.718 2.084 0.198 5.554 2.77 7.84 0.354 8.124 -5.284 0.624 -4.854 1.614 -5.3 0.176Zm-30.914 54.136c-0.142 1.568 -3.578 -1.39 -24.62 -8.69 -3.314 -1.146 -6.448 -2.788 -9.81 -3.83 -0.474 -0.148 -1.044 -0.24 -1.032 -1.056 0.944 -1.118 0.788 -2.674 1.282 -4.034 0.656 -1.806 32.056 10.976 34.486 11.39 1.694 0.294 0.144 1.268 -0.306 6.22Zm9.366 16.646c-2.74 -2.944 -6.5 -7.148 -7.03 -13.28 -0.162 -5.852 1.166 -9.568 3.672 -12.946 3.54 -4.774 5.196 -5.562 9.774 -4.61 4.058 0.844 7.12 2.14 9.664 6.198 2.464 3.928 4.476 11.608 2.256 16.776 -0.684 1.592 -1.694 2.916 -2.418 4.408 -2.204 4.542 -13.078 6.508 -15.918 3.454Zm21.348 0.632c-6.742 5.362 -15.858 3.17 -11.97 2.602 17.492 -2.47 14.97 -33.758 -1.424 -36.182 16.522 -3.052 28.62 21.474 13.394 33.58Zm9.406 -14.412c-0.25 -5.648 -1.572 -5.942 0.154 -6.492 8.108 -2.61 14.078 -5.334 19.784 -7.48 32.916 -12.412 31.6 -15.34 33.214 -11.572 1.456 3.406 1.992 6.146 -1.568 7.178 -6.27 1.818 -38.116 13.976 -51.582 18.364l-0.002 0.002Zm70.288 -33.656c9.866 15.158 -1.16 30.7 -15.478 28.606 19.84 -5.346 13.334 -33.456 -0.888 -35.438 4.32 -1.328 12.376 0.708 16.366 6.832Zm-20.604 -4.69c5.652 -1.25 11.66 2.652 14.196 9.562 3.26 8.882 -0.398 18.178 -6.236 20.224 -7.876 2.754 -12.158 0.518 -14.43 -3.866 -0.208 -0.406 -0.338 -0.634 0.314 -0.88 12.922 -4.814 12.738 -4.572 12.694 -8.12 -0.024 -2.16 -0.704 -4.066 -1.52 -5.994 -0.652 -1.54 -1.09 -2.726 -4.83 -1.134 -6.492 2.76 -9.98 4.302 -9.98 4.302 -0.03 -7.928 5.062 -13.046 9.792 -14.094Zm-25.19 3.08c1.83 0.296 13.878 2.486 14.442 3.048 0.808 0.812 -0.426 1.73 -0.608 2.646 -0.168 0.86 0.052 1.59 -1.46 1.23 -18.108 -4.28 -7.488 -1.97 -23.94 -5.032 -1.814 -0.342 0.426 -0.96 0.29 -3.118 -0.116 -1.842 1.332 -0.39 11.278 1.222l-0.002 0.004Zm-10.162 4.312c7.304 1.204 14.506 2.84 21.718 4.472 0.666 0.15 1.098 0.334 1.266 0.708 0.11 0.248 0.102 2.028 -0.03 2.356 -0.426 1.048 -2.01 1.07 -2.99 1.468 -37.882 15.368 -35.76 14.466 -36.23 12.934 -3.982 -12.996 -26.782 -20.364 -36.066 -2.1 -0.736 1.46 -8.924 -2.784 -13.304 -4.376 -21.896 -7.968 -22.78 -6.986 -22.696 -8.712 0.074 -1.496 5.31 -0.776 8.39 -1.388 18.904 -3.72 48.276 -7.742 48.32 -7.746 0.93 -0.136 1.324 0.47 1.778 1.36 2.114 4.122 6.938 8.008 14.804 8.116 4.658 0.064 7.93 -2.438 10.69 -5.764 2.714 -3.274 2.38 -1.652 4.348 -1.332l0.002 0.004Zm-5.454 -17.606c2.936 4.292 2.598 12.288 1.438 14.562 -3.188 6.248 -6.954 8.498 -13.926 7.738 14.134 -3.178 12.532 -25.102 -0.482 -28.73 5.274 -0.71 10.178 2.348 12.97 6.43Zm79.428 -61.376c-1.44 6.838 -2.86 16.82 -7.224 18.782 -1.966 0.884 -66.09 22.552 -78.478 23.834 -6.652 0.688 -12.396 -1.87 -61.862 -15.496 -37.932 -10.446 -30.792 -5.02 -38.442 -30.226 -23.424 -77.182 -21.17 -67.182 -15.92 -65.452 3.084 1.022 1.746 1.68 2.152 3.198 4.272 16.064 9.84 36.312 15.88 54.254 6.226 18.472 4.11 23.106 11.656 25.476 12.946 4.07 64.456 16.63 71.672 17.874 15.854 2.744 12.83 4.854 15.666 -23.952 2.236 -22.874 1.946 -39.578 3.274 -39.456 1.436 0.124 2.772 -0.422 4.152 -0.652 2.04 -0.342 0.756 1.026 0.47 6.596 -0.876 16.964 -5.084 54.172 -5.096 55.5 -0.06 8.224 9.21 1.496 71.012 -14.04 2.764 -0.696 4.67 -2.28 5.37 -5.276 3.978 -17.034 4.224 -26.122 4.814 -30.012 2.7 -17.734 7.428 -29.748 7.514 -33.096 0.032 -1.154 4.996 -1.95 6.126 -2.044 -1.938 5.558 -10.63 44.198 -12.734 54.19l-0.002 -0.002Z" stroke-width="1"></path><path id="vector_104" fill="#000000" d="M208.454 215.506c-9.326 2.082 -9.106 1.968 -15.736 0.338 -12.494 -3.072 -108.224 -31.3278 -108.268 -31.3658 -2.406 -2.108 -4.75 0.448 -1.348 2.024 2.94 1.362 73.224 21.2118 109.466 31.2898 7.352 2.044 3.84 1.906 17.444 -0.716 5.594 -1.078 69.672 -16.266 72.532 -19.2898 1.526 -1.612 1.99 -2.32 -3.804 -0.474 -7.818 2.492 -57.206 15.2718 -70.288 18.1918l0.002 0.002Z" stroke-width="1"></path><path id="vector_105" fill="#000000" d="M108.892 222.346c0.478 1.682 -0.2 0.036 1.866 14.098 0.542 3.692 6.356 2.37 20.714 7.806 2.402 0.91 2.88 0.164 2.93 -2.578 0.026 -1.366 -0.2 -10.228 -0.242 -11.4 -0.064 -1.756 -0.408 -2.12 -1.734 -2.41 -5.346 -1.166 -6.302 -2.292 -18.498 -5.318 -1.134 -0.282 -5.676 -2.446 -5.036 -0.198Zm3.362 1.608c20.282 6.272 20.014 5.49 19.972 7.184 -0.346 13.956 3.122 11.956 -8.386 8.57 -10.964 -3.226 -11.074 -2.702 -11.188 -3.866 -0.906 -9.36 -2.782 -12.624 -0.398 -11.888Z" stroke-width="1"></path><path id="vector_106" fill="#000000" d="M137.488 243.192c0.116 2.882 0.774 3.026 3.792 4.082 20.822 7.288 20.752 7.448 20.85 4.818 0.56 -14.918 0.74 -14.37 -0.354 -14.898 -0.04 -0.02 -24.318 -7.534 -24.382 -7.468 -0.452 0.456 0.04 12.146 0.092 13.466h0.002Zm22.646 -4.464c1.114 0.34 0.404 0.184 0.14 11.62 -0.024 1.066 -0.178 1.264 -1.218 0.86 -3.32 -1.286 -6.76 -2.226 -10.064 -3.604 -12.82 -5.352 -8.644 1.714 -9.802 -13.772 -0.176 -2.364 -0.506 -1.656 20.942 4.894l0.002 0.002Z" stroke-width="1"></path><path id="vector_107" fill="#000000" d="M138.348 266.648c4.006 1.358 2.194 0.514 19.43 5.63 1.61 0.478 3.242 0.86 3.298 -0.82 0.492 -14.572 1.596 -14.444 -1.258 -14.418 -2.096 0.018 -12.308 -4.088 -18.646 -5.808 -3.556 -0.964 -3.684 -1.48 -3.688 2.646 -0.01 12.6 -0.608 12.27 0.864 12.77Zm1.034 -12.154c-0.044 -1.23 -0.226 -1.81 1.62 -1.292 5.96 1.672 11.62 4.29 17.688 5.59 1.918 0.412 1.064 1.086 0.546 11.016 -0.086 1.64 -0.97 0.024 -6.282 -1.118 -4.228 -0.908 -8.318 -2.28 -12.484 -3.41 -2.252 -0.612 -0.832 -3.584 -1.09 -10.788l0.002 0.002Z" stroke-width="1"></path><path id="vector_108" fill="#000000" d="M111.82 243.388c2.468 12.162 0.658 15.816 3.918 16.672 0.048 0.012 13.22 4.38 17.282 4.678 1.308 -0.16 1.41 -1.646 1.262 -13.904 -0.012 -0.954 -0.544 -1.974 -1.83 -2.34 -21.336 -6.098 -20.996 -6.892 -20.632 -5.106Zm2.364 1.798c2.506 0.462 15.408 4.472 16.976 4.924 2.118 0.61 0.876 1.54 1.058 11.036 0.044 2.284 -0.456 1.29 -13.204 -2.12 -2.582 -0.69 -3.624 -1.608 -3.688 -4.32 -0.074 -3.154 -0.728 -6.29 -1.142 -9.52Z" stroke-width="1"></path><path id="vector_109" fill="#000000" d="M232.178 251.054c29.796 -11.406 24.374 -1.768 27.164 -22.318 0.352 -2.586 -1.684 0.456 -19.632 5.176 -7.988 2.1 -8.284 2.28 -8.286 3.732 -0.002 2.088 -0.582 10.62 -0.566 11.748 0.026 1.984 0.256 2.07 1.32 1.662Zm2.132 -13.466c1.304 -0.258 15.538 -4.388 21.9 -6.818 1.44 -0.55 0.914 -0.214 -0.322 9.83 -0.19 1.552 -17.822 5.88 -22.62 7.92 0 -10.792 -0.382 -10.65 1.042 -10.932Z" stroke-width="1"></path><path id="vector_110" fill="#000000" d="M231.748 271.068c5.836 -1.848 15.316 -4.62 20.926 -6.676 1.512 -0.554 1.308 -1.336 4.05 -16.792 0.242 -1.368 2.204 -1.978 -24.37 7.236 -1.574 0.546 -1.98 1.288 -2.064 3.388 -0.504 12.682 -0.86 13.578 1.458 12.844Zm0.454 -12.484c0.006 -2.152 -0.596 -1.456 22.114 -9.082 -0.278 4.146 -1.23 7.948 -1.842 11.8 -0.152 0.958 -0.722 1.264 -1.584 1.616 -0.04 0.016 -12.35 4.096 -17.66 5.53 -2.062 0.558 -1.048 -0.27 -1.026 -9.866l-0.002 0.002Z" stroke-width="1"></path><path id="vector_111" fill="#000000" d="M155.2 370.26c-0.01 8.592 15.64 10.108 15.802 -1.162 0.07 -4.91 -2.482 -8.286 -7.44 -7.802 -5.972 -0.43 -8.356 3.992 -8.362 8.964Zm8.72 -6.706c2.336 0.074 5.13 2.9 5.132 5.16 0.002 3.056 -2.86 6.292 -5.748 6.138 -8.606 -0.46 -7.28 -11.544 0.616 -11.298Z" stroke-width="1"></path><path id="vector_112" fill="#000000" d="M84.614 346.344c-0.142 3.068 3.434 6.49 7.876 6.198 8.172 -0.536 9.198 -15.034 -0.358 -14.238 -5.594 -0.286 -7.288 3.076 -7.518 8.04Zm7.24 -5.912c2.554 -0.136 5.206 2.07 5.304 4.418 0.104 2.514 -2.446 5.528 -4.802 5.676 -7.69 0.478 -7.366 -10.524 -0.5 -10.094h-0.002Z" stroke-width="1"></path></g><g id="plus"><path id="vector_113" fill="#ffffff" d="M287.27 246.984c-19.378 -0.034 -34.464 16.16 -34.278 34.38 0.192 18.81 15.918 34.85 35.87 34.002 17.652 -0.75 33.294 -15.452 32.864 -35.084 -0.408 -18.606 -15.878 -33.264 -34.456 -33.298Z" stroke-width="1"></path><path id="vector_114" fill="#96cbaf" d="M295.41 288.04c-2.208 0.086 -2.342 0.522 -2.32 10.16 0.004 2.28 -0.27 1.42 -13.622 1.388 -1.396 -0.004 -1.324 0.004 -0.768 -8.414 0.108 -1.628 -0.652 -2.306 -2.208 -2.368 -3.088 -0.124 -6.162 -0.686 -9.262 -0.274 -2.168 0.288 -1.3 -0.028 -1.778 -12.198 -0.128 -3.254 0.524 -1.064 11.784 -2.332 3.278 -0.37 3.016 -0.628 3.294 -9.628 0.066 -2.128 0.262 -1.114 11.82 -1.444 1.512 -0.044 1.174 0 1.448 8.724 0.098 3.122 0.358 2.764 11.43 2.896 2.422 0.03 2.342 0.844 2.642 11.394 0.044 1.576 0.266 1.606 -12.46 2.1v-0.004Z" stroke-width="1"></path><path id="vector_115" fill="#000000" d="M287.348 244.14c-20.77 0.038 -36.536 16.29 -36.942 36.142 -0.438 21.36 16.732 37.96 37.104 37.828 20.42 -0.134 36.884 -16.418 36.886 -36.958 0.002 -20.572 -16.044 -37.048 -37.046 -37.01l-0.002 -0.002Zm1.514 71.226c-19.954 0.846 -35.678 -15.192 -35.87 -34.002 -0.186 -18.22 14.9 -34.416 34.278 -34.38 18.578 0.034 34.05 14.692 34.456 33.298 0.43 19.636 -15.212 34.336 -32.864 35.084Z" stroke-width="1"></path><path id="vector_116" fill="#000000" d="M310.116 282.696c-0.796 -8.72 -0.37 -10.274 -3.632 -10.312 -10.844 -0.128 -10.642 -0.258 -10.602 -1.87 0.218 -8.748 0.172 -9.982 -2.78 -9.926 -13.398 0.254 -14.196 -0.588 -14.528 2.072 -0.958 7.658 0.764 8.798 -2.446 9.082 -10.876 0.962 -12.666 -0.474 -12.642 2.284 0.132 15.22 -0.764 16.7 2.156 16.712 14.428 0.052 10.568 -0.628 10.562 6.712 -0.004 4.874 -0.27 4.34 4.212 4.4 12.38 0.166 14.782 1.234 14.768 -2.344 -0.01 -2.462 0.366 -4.926 0.274 -7.376 -0.088 -2.356 0.314 -1.648 11.262 -2.336 3.886 -0.244 3.394 -1.246 3.394 -7.094l0.002 -0.004Zm-14.706 5.344c-2.208 0.086 -2.342 0.522 -2.32 10.16 0.004 2.28 -0.27 1.42 -13.622 1.388 -1.396 -0.004 -1.324 0.004 -0.768 -8.414 0.108 -1.628 -0.652 -2.306 -2.208 -2.368 -3.088 -0.124 -6.162 -0.686 -9.262 -0.274 -2.168 0.288 -1.3 -0.028 -1.778 -12.198 -0.128 -3.254 0.524 -1.064 11.784 -2.332 3.278 -0.37 3.016 -0.628 3.294 -9.628 0.066 -2.128 0.262 -1.114 11.82 -1.444 1.512 -0.044 1.174 0 1.448 8.724 0.098 3.122 0.358 2.764 11.43 2.896 2.422 0.03 2.342 0.844 2.642 11.394 0.044 1.576 0.266 1.606 -12.46 2.1v-0.004Z" stroke-width="1"></path></g><g id="details"><path id="vector_117" fill="#000000" d="M349.444 249.688c-1.19 -0.442 -1.81 0.282 -2.49 1.356 -2.452 3.876 -6.43 5.452 -10.742 4.3 -0.8 -0.214 -1.018 -0.012 -1.344 0.644 -3.934 7.95 -13.452 4.986 -12.512 2.462 0.384 -1.034 1.19 -0.768 2.04 -0.466 4.344 1.546 7.664 -0.266 8.72 -4.698 0.406 -1.706 0.98 -1.99 2.498 -1.234 4.016 1.998 8.478 0.306 9.862 -3.914 0.53 -1.616 1.468 -1.676 2.748 -1.432 3.68 0.704 6.528 -1.224 7.204 -4.948 0.144 -0.792 0.338 -1.296 1.262 -1.284 3.214 0.048 0.004 9.64 -7.244 9.214h-0.002Z" stroke-width="1"></path><path id="vector_118" fill="#000000" d="M330.954 217.886c1.758 -0.084 2.898 -1.44 3.11 -3.824 0.078 -0.876 -0.186 -1.928 1.202 -1.862 1.316 0.062 1.158 1.158 1.178 1.994 0.084 3.414 -1.608 5.51 -5.16 6.258 -1.722 0.362 1.294 8.564 -8.864 10.152 -2.108 0.33 1.038 5.156 -5.744 10.026 -1.97 1.416 -4.308 1.104 -6.46 1.616 -1.034 0.246 -2.252 -2.736 0.39 -2.662 6.094 0.168 9.332 -5.016 8.534 -9.974 -0.684 -4.252 2.972 0.39 6.946 -3.274 4.588 -4.228 -0.736 -8.18 4.866 -8.45h0.002Z" stroke-width="1"></path><path id="vector_119" fill="#000000" d="M355.026 281.066c-1.67 -0.146 -3.116 -0.274 -4.742 0.844 -4.09 2.812 -7.04 -1.706 -8.47 -0.044 -4.106 4.77 -12.632 0.33 -10.868 -1.914 1.432 -1.822 5.188 3.998 8.876 0.226 1.774 -1.814 1.218 -4.718 3.99 -1.83 2.2 2.292 4.19 2.268 6.25 -0.056 0.688 -0.776 1.552 -0.696 2.43 -0.394 3.046 1.05 5.74 0.716 6.05 -2.372 0.092 -0.926 -0.29 -2.316 1.324 -2.152 2.224 0.226 1.646 8.258 -4.838 7.694l-0.002 -0.002Z" stroke-width="1"></path></g></g></svg>